<svg xmlns="http://www.w3.org/2000/svg" viewBox="0 0 82 22"><path d="M1.83,1.88h9.82A.5.5,0,0,1,12,2a.49.49,0,0,1,.16.37.46.46,0,0,1-.16.37.49.49,0,0,1-.36.15H2.14l.26-.45v8.08l-.31-.37h8.39a.52.52,0,0,1,.36.9.48.48,0,0,1-.36.14H2.14L2.4,11V19.2l-.1-.13h9.35a.5.5,0,0,1,.36.16.48.48,0,0,1,.16.36A.46.46,0,0,1,12,20a.49.49,0,0,1-.36.15H1.83A.5.5,0,0,1,1.47,20a.5.5,0,0,1-.16-.37V2.41A.49.49,0,0,1,1.47,2,.5.5,0,0,1,1.83,1.88Z"/><path d="M21.32,20.38a6,6,0,0,1-3.25-.88,6.21,6.21,0,0,1-2.19-2.25,5.78,5.78,0,0,1-.78-2.89,5.42,5.42,0,0,1,.45-2.15,5.85,5.85,0,0,1,1.38-1.91A6.22,6.22,0,0,1,19.29,9l.81.81a4.83,4.83,0,0,0-3,1.73,4.54,4.54,0,0,0-.91,2.72,5.33,5.33,0,0,0,.6,2.47,4.79,4.79,0,0,0,1.76,1.9,5.06,5.06,0,0,0,2.77.73,8.23,8.23,0,0,0,3.15-.54,6,6,0,0,0,2.16-1.49A7.7,7.7,0,0,0,28,15.21a11.54,11.54,0,0,0,.75-2.36.53.53,0,0,1,.55-.44.5.5,0,0,1,.39.17.45.45,0,0,1,.1.43A9.42,9.42,0,0,1,29,15.67a8.73,8.73,0,0,1-1.67,2.39,7.58,7.58,0,0,1-2.54,1.69A8.85,8.85,0,0,1,21.32,20.38ZM30.57,20a.32.32,0,0,1-.16,0,.76.76,0,0,0-.16-.06L27.3,17.69c-1-.73-1.95-1.55-2.94-2.47a45.61,45.61,0,0,1-3.22-3.33,23.11,23.11,0,0,1-1.64-2.1,11.48,11.48,0,0,1-1.16-2.08,5.12,5.12,0,0,1-.43-2,4,4,0,0,1,.56-2.12,3.82,3.82,0,0,1,1.6-1.45,5.6,5.6,0,0,1,2.48-.52,5.47,5.47,0,0,1,3,.75,4.48,4.48,0,0,1,1.64,1.7.54.54,0,0,1,.07.12.43.43,0,0,1,0,.19.47.47,0,0,1-.15.3.44.44,0,0,1-.37.17.54.54,0,0,1-.25-.06.65.65,0,0,1-.2-.17A4.66,4.66,0,0,0,25,3.25a4.41,4.41,0,0,0-2.46-.58,3.75,3.75,0,0,0-2.65.84A3,3,0,0,0,19,5.77a4.46,4.46,0,0,0,.39,1.71,10.72,10.72,0,0,0,1.07,1.93A19.33,19.33,0,0,0,22,11.36c.75.86,1.52,1.66,2.32,2.43s1.59,1.47,2.37,2.12,1.52,1.24,2.24,1.76l1.92,1.38a.47.47,0,0,1,.19.18.59.59,0,0,1,.05.23.61.61,0,0,1-.14.37A.48.48,0,0,1,30.57,20Z"/><path d="M42.71,1.88a4.62,4.62,0,0,1,3.34,1.2A4.29,4.29,0,0,1,47.3,6.31a5.16,5.16,0,0,1-.43,2.07A4.25,4.25,0,0,1,45.61,10a3.85,3.85,0,0,1-2.06.75l-.18-.31a5.91,5.91,0,0,1,1.9.3,4.2,4.2,0,0,1,2.56,2.37,5.12,5.12,0,0,1,.38,2,5.23,5.23,0,0,1-.42,2.18,4.18,4.18,0,0,1-1.14,1.53,4.82,4.82,0,0,1-1.7.92,6.82,6.82,0,0,1-2.05.3H35.71a.54.54,0,0,1-.37-.16.53.53,0,0,1-.15-.37V2.41A.51.51,0,0,1,35.34,2a.54.54,0,0,1,.37-.16Zm-.13,1.05H36l.28-.5v8.26L36,10.24h6.56a3.64,3.64,0,0,0,2.58-1,3.85,3.85,0,0,0,1.05-2.94,3.3,3.3,0,0,0-.94-2.44A3.66,3.66,0,0,0,42.58,2.93Zm.19,8.38H36.18l.1-.15v8.12l-.13-.21h6.62a5.06,5.06,0,0,0,3.1-.92,3.45,3.45,0,0,0,1.25-3A3.84,3.84,0,0,0,46.54,13,3.35,3.35,0,0,0,45,11.72,5.8,5.8,0,0,0,42.77,11.31Z"/><path d="M64.49,1.88a.53.53,0,0,1,.38.16.55.55,0,0,1,.14.37V13.66A6.43,6.43,0,0,1,64.1,17a7,7,0,0,1-2.42,2.43,6.38,6.38,0,0,1-3.36.92,6.45,6.45,0,0,1-3.38-.92A7,7,0,0,1,52.51,17a6.43,6.43,0,0,1-.91-3.37V2.41A.5.5,0,0,1,51.74,2a.53.53,0,0,1,.4-.16.53.53,0,0,1,.39.16.49.49,0,0,1,.16.37V13.66a5.48,5.48,0,0,0,.76,2.85,5.75,5.75,0,0,0,2,2.06,5.65,5.65,0,0,0,5.66,0,6,6,0,0,0,2.05-2.06A5.49,5.49,0,0,0,64,13.66V2.41A.5.5,0,0,1,64.11,2,.51.51,0,0,1,64.49,1.88Z"/><path d="M80.17,1.78a.46.46,0,0,1,.39.18.56.56,0,0,1,.13.32.52.52,0,0,1,0,.18.51.51,0,0,1-.07.15L74.41,11l.24-.76v9.35a.5.5,0,0,1-.16.37.53.53,0,0,1-.39.16.53.53,0,0,1-.55-.53V10.43l.14.54-6.1-8.36a1.09,1.09,0,0,1-.08-.15,1,1,0,0,1,0-.18.45.45,0,0,1,.18-.36A.61.61,0,0,1,68,1.78a.53.53,0,0,1,.45.23l5.78,7.9L74,9.85,79.73,2A.5.5,0,0,1,80.17,1.78Z"/></svg>