<svg xmlns="http://www.w3.org/2000/svg" viewBox="0 0 122 34"><path d="M39.16,7.88H49a.5.5,0,0,1,.36.16.49.49,0,0,1,.16.37.46.46,0,0,1-.16.37.49.49,0,0,1-.36.15H39.47l.26-.45v8.08l-.31-.37h8.39a.52.52,0,0,1,.36.9.48.48,0,0,1-.36.14H39.47l.26-.28V25.2l-.1-.13H49a.5.5,0,0,1,.36.16.48.48,0,0,1,.16.36.46.46,0,0,1-.16.38.49.49,0,0,1-.36.15H39.16a.55.55,0,0,1-.52-.53V8.41A.49.49,0,0,1,38.8,8,.5.5,0,0,1,39.16,7.88Z" fill="#fff"/><path d="M58.65,26.38a6,6,0,0,1-3.25-.88,6.21,6.21,0,0,1-2.19-2.25,5.78,5.78,0,0,1-.78-2.89,5.42,5.42,0,0,1,.45-2.15,5.85,5.85,0,0,1,1.38-1.91A6.22,6.22,0,0,1,56.62,15l.81.81a4.83,4.83,0,0,0-3,1.73,4.54,4.54,0,0,0-.91,2.72,5.33,5.33,0,0,0,.6,2.47,4.79,4.79,0,0,0,1.76,1.9,5.06,5.06,0,0,0,2.77.73,8.2,8.2,0,0,0,3.15-.54A6,6,0,0,0,64,23.3a7.7,7.7,0,0,0,1.39-2.09,11.54,11.54,0,0,0,.75-2.36.62.62,0,0,1,.2-.33.56.56,0,0,1,.35-.11.5.5,0,0,1,.39.17.45.45,0,0,1,.1.43,9.42,9.42,0,0,1-.83,2.66,8.73,8.73,0,0,1-1.67,2.39,7.58,7.58,0,0,1-2.54,1.69A8.85,8.85,0,0,1,58.65,26.38ZM67.9,26a.32.32,0,0,1-.16,0l-.15-.06-3-2.22c-1-.73-1.95-1.55-2.94-2.47a45.61,45.61,0,0,1-3.22-3.33,23.11,23.11,0,0,1-1.64-2.1,11.48,11.48,0,0,1-1.16-2.08,5.12,5.12,0,0,1-.43-2,4,4,0,0,1,.56-2.12,3.82,3.82,0,0,1,1.6-1.45,5.6,5.6,0,0,1,2.48-.52,5.47,5.47,0,0,1,3,.75,4.48,4.48,0,0,1,1.64,1.7.54.54,0,0,1,.07.12.43.43,0,0,1,0,.19.47.47,0,0,1-.15.3.44.44,0,0,1-.37.17.54.54,0,0,1-.25-.06.65.65,0,0,1-.2-.17,4.66,4.66,0,0,0-1.36-1.37,4.39,4.39,0,0,0-2.46-.58,3.75,3.75,0,0,0-2.65.84,3,3,0,0,0-.9,2.26,4.46,4.46,0,0,0,.39,1.71,11.37,11.37,0,0,0,1.07,1.93,19.33,19.33,0,0,0,1.54,1.95c.75.86,1.52,1.66,2.32,2.43s1.59,1.47,2.37,2.12,1.52,1.24,2.24,1.76l1.92,1.38a.47.47,0,0,1,.19.18.59.59,0,0,1,0,.23.61.61,0,0,1-.14.37A.48.48,0,0,1,67.9,26Z" fill="#fff"/><path d="M80.05,7.88a4.61,4.61,0,0,1,3.33,1.2,4.29,4.29,0,0,1,1.25,3.23,5.16,5.16,0,0,1-.43,2.07A4.25,4.25,0,0,1,82.94,16a3.85,3.85,0,0,1-2.06.75l-.18-.31a5.91,5.91,0,0,1,1.9.3,4.2,4.2,0,0,1,2.56,2.37,5.12,5.12,0,0,1,.38,2,5.23,5.23,0,0,1-.42,2.18A4.18,4.18,0,0,1,84,24.9a4.82,4.82,0,0,1-1.7.92,6.82,6.82,0,0,1-2,.3H73a.54.54,0,0,1-.37-.16.53.53,0,0,1-.15-.37V8.41A.51.51,0,0,1,72.67,8,.54.54,0,0,1,73,7.88Zm-.14,1H73.33l.28-.5v8.26l-.26-.45h6.56a3.64,3.64,0,0,0,2.58-1,3.85,3.85,0,0,0,1.05-2.94,3.3,3.3,0,0,0-.94-2.44A3.66,3.66,0,0,0,79.91,8.93Zm.19,8.38H73.51l.1-.15v8.12l-.13-.21H80.1a5.06,5.06,0,0,0,3.1-.92,3.45,3.45,0,0,0,1.25-3A3.84,3.84,0,0,0,83.87,19a3.35,3.35,0,0,0-1.56-1.26A5.8,5.8,0,0,0,80.1,17.31Z" fill="#fff"/><path d="M101.82,7.88a.53.53,0,0,1,.38.16.55.55,0,0,1,.14.37V19.66a6.43,6.43,0,0,1-.91,3.37A7,7,0,0,1,99,25.46a6.38,6.38,0,0,1-3.36.92,6.45,6.45,0,0,1-3.38-.92A7,7,0,0,1,89.84,23a6.43,6.43,0,0,1-.91-3.37V8.41A.5.5,0,0,1,89.07,8a.53.53,0,0,1,.4-.16.53.53,0,0,1,.39.16.49.49,0,0,1,.16.37V19.66a5.48,5.48,0,0,0,.76,2.85,5.75,5.75,0,0,0,2,2.06,5.65,5.65,0,0,0,5.66,0,5.86,5.86,0,0,0,2-2.06,5.49,5.49,0,0,0,.77-2.85V8.41a.5.5,0,0,1,.14-.37A.51.51,0,0,1,101.82,7.88Z" fill="#fff"/><path d="M117.5,7.78a.46.46,0,0,1,.39.18.56.56,0,0,1,.13.32,1,1,0,0,1,0,.18,1.09,1.09,0,0,1-.08.15L111.74,17l.24-.76v9.35a.5.5,0,0,1-.16.37.53.53,0,0,1-.39.16A.53.53,0,0,1,111,26a.52.52,0,0,1-.14-.37V16.43L111,17l-6.1-8.36a1.09,1.09,0,0,1-.08-.15,1,1,0,0,1,0-.18.45.45,0,0,1,.18-.36.61.61,0,0,1,.36-.14.53.53,0,0,1,.45.23l5.78,7.9-.26-.06L117.06,8A.5.5,0,0,1,117.5,7.78Z" fill="#fff"/><path d="M32.7,15.18a7.78,7.78,0,0,0-8.35-7.77,7.79,7.79,0,0,0-15.12,0A7.79,7.79,0,0,0,4.55,21.79a7.79,7.79,0,0,0,12.24,8.89,7.77,7.77,0,0,0,5,1.83A7.69,7.69,0,0,0,26.39,31,7.83,7.83,0,0,0,29,21.79,7.8,7.8,0,0,0,32.7,15.18ZM20.34,17.45a1.11,1.11,0,0,1-1.14.26l-1.95,1.94a.48.48,0,0,1-.92,0l-1.95-1.94a1.11,1.11,0,0,1-1.14-.26,1.12,1.12,0,0,1,1.58-1.58A1.11,1.11,0,0,1,15.08,17l1.22,1.22V16.6a1.1,1.1,0,0,1-.62-1,1.11,1.11,0,1,1,2.22,0,1.1,1.1,0,0,1-.62,1v1.63L18.5,17a1.11,1.11,0,0,1,.26-1.14,1.12,1.12,0,0,1,1.58,1.58Z" fill="#fff"/></svg>