<svg xmlns="http://www.w3.org/2000/svg" xmlns:xlink="http://www.w3.org/1999/xlink" viewBox="0 0 88 96"><defs><symbol id="a" viewBox="0 0 64.5 62.88"><path d="M42.43,62.88a15.73,15.73,0,0,1-10.18-3.71,15.79,15.79,0,0,1-24.8-18A15.8,15.8,0,0,1,0,27.74a15.56,15.56,0,0,1,.78-4.87A15.83,15.83,0,0,1,16.92,12a15.8,15.8,0,0,1,30.66,0A15.85,15.85,0,0,1,63.72,22.87a15.56,15.56,0,0,1,.78,4.87,15.8,15.8,0,0,1-7.45,13.41A15.83,15.83,0,0,1,51.7,59.86,15.64,15.64,0,0,1,42.43,62.88ZM32.25,57.29l.47.43A14.39,14.39,0,0,0,55.53,41.15l-.26-.58.55-.32a14.39,14.39,0,0,0-8.71-26.81l-.64.07-.12-.62a14.4,14.4,0,0,0-28.2,0l-.13.62-.63-.07A14.39,14.39,0,0,0,8.68,40.25l.55.32L9,41.15A14.39,14.39,0,0,0,31.78,57.72Z"/><path d="M32.25,37.52a1,1,0,0,1-1-1v-8a1,1,0,0,1,2,0v8A1,1,0,0,1,32.25,37.52Z"/><path d="M34.5,28.61a2.26,2.26,0,1,0-2.25,2.26A2.25,2.25,0,0,0,34.5,28.61Z"/><path d="M32.25,37.34a1,1,0,0,1-.71-.29,1,1,0,0,1,0-1.41L37.21,30a1,1,0,0,1,1.42,1.42L33,37.05A1,1,0,0,1,32.25,37.34Z"/><path d="M39.44,32.35a2.26,2.26,0,1,0-3.19,0A2.26,2.26,0,0,0,39.44,32.35Z"/><path d="M32.25,37.34a1,1,0,0,1-.71-.29l-5.67-5.67a1,1,0,0,1,0-1.42,1,1,0,0,1,1.41,0L33,35.64a1,1,0,0,1,0,1.41A1,1,0,0,1,32.25,37.34Z"/><path d="M28.25,29.16a2.26,2.26,0,1,0,0,3.19A2.24,2.24,0,0,0,28.25,29.16Z"/></symbol></defs><use width="64.5" height="62.88" transform="translate(13.55 1.98) scale(0.93)" xlink:href="#a"/><path d="M7.33,75.58h9.82a.55.55,0,0,1,.52.52.51.51,0,0,1-.52.52H7.64l.26-.44v8.07l-.31-.36H16a.55.55,0,0,1,.52.52.48.48,0,0,1-.16.38.52.52,0,0,1-.36.14H7.64l.26-.29V92.9l-.1-.13h9.35a.55.55,0,0,1,.52.52.48.48,0,0,1-.16.38.52.52,0,0,1-.36.14H7.33A.49.49,0,0,1,7,93.66a.5.5,0,0,1-.16-.37V76.1a.55.55,0,0,1,.52-.52Z"/><path d="M26.82,94.07a6,6,0,0,1-3.25-.87A6.21,6.21,0,0,1,21.38,91a5.81,5.81,0,0,1-.78-2.89,5.42,5.42,0,0,1,.45-2.15A5.89,5.89,0,0,1,22.43,84a6.5,6.5,0,0,1,2.36-1.33l.81.81a4.83,4.83,0,0,0-3,1.73,4.57,4.57,0,0,0-.91,2.73,5.36,5.36,0,0,0,.6,2.47,4.79,4.79,0,0,0,1.76,1.9,5.06,5.06,0,0,0,2.77.73A8,8,0,0,0,30,92.48,6,6,0,0,0,32.13,91a7.75,7.75,0,0,0,1.39-2.1,11.46,11.46,0,0,0,.75-2.35.56.56,0,0,1,.2-.33.51.51,0,0,1,.35-.12.54.54,0,0,1,.39.17.47.47,0,0,1,.1.43,9.58,9.58,0,0,1-.83,2.67,8.68,8.68,0,0,1-1.67,2.38,7.46,7.46,0,0,1-2.54,1.7A9,9,0,0,1,26.82,94.07Zm9.25-.36a.47.47,0,0,1-.16,0l-.16-.07c-1-.74-2-1.48-3-2.21s-1.95-1.55-2.94-2.47a45.92,45.92,0,0,1-3.22-3.34A21.7,21.7,0,0,1,25,83.49a11.55,11.55,0,0,1-1.16-2.09,5.07,5.07,0,0,1-.43-2A4,4,0,0,1,24,77.29a3.82,3.82,0,0,1,1.6-1.45,5.46,5.46,0,0,1,2.48-.52,5.56,5.56,0,0,1,3,.74,4.57,4.57,0,0,1,1.64,1.71.54.54,0,0,1,.07.12.41.41,0,0,1,0,.19.47.47,0,0,1-.15.3.47.47,0,0,1-.37.17.45.45,0,0,1-.25-.07.62.62,0,0,1-.2-.16A4.55,4.55,0,0,0,30.51,77a4.41,4.41,0,0,0-2.46-.59,3.7,3.7,0,0,0-2.65.85,2.93,2.93,0,0,0-.9,2.25,4.5,4.5,0,0,0,.39,1.72A10.72,10.72,0,0,0,26,83.11a19.33,19.33,0,0,0,1.54,2c.75.85,1.52,1.66,2.32,2.42s1.59,1.47,2.37,2.13,1.52,1.23,2.24,1.75l1.92,1.38a.57.57,0,0,1,.19.19.56.56,0,0,1,.05.23.66.66,0,0,1-.14.37A.48.48,0,0,1,36.07,93.71Z"/><path d="M48.21,75.58a4.62,4.62,0,0,1,3.34,1.2A4.27,4.27,0,0,1,52.8,80a5.16,5.16,0,0,1-.43,2.07,4.14,4.14,0,0,1-1.26,1.65,3.78,3.78,0,0,1-2.06.76l-.18-.31a6.2,6.2,0,0,1,1.9.29,4.19,4.19,0,0,1,1.53.9,4.15,4.15,0,0,1,1,1.48,5.12,5.12,0,0,1,.38,2,5.19,5.19,0,0,1-.42,2.17,4.22,4.22,0,0,1-1.14,1.54,4.8,4.8,0,0,1-1.7.91,6.82,6.82,0,0,1-2.05.3H41.21a.51.51,0,0,1-.52-.52V76.1a.49.49,0,0,1,.15-.36.5.5,0,0,1,.37-.16Zm-.13,1H41.5l.28-.49v8.25l-.26-.44h6.56a3.69,3.69,0,0,0,2.58-1,3.88,3.88,0,0,0,1.05-3,3.28,3.28,0,0,0-.94-2.43A3.66,3.66,0,0,0,48.08,76.62ZM48.27,85H41.68l.1-.16V93l-.13-.21h6.62a5.13,5.13,0,0,0,3.1-.92,3.46,3.46,0,0,0,1.25-3A3.84,3.84,0,0,0,52,86.68a3.31,3.31,0,0,0-1.56-1.27A5.8,5.8,0,0,0,48.27,85Z"/><path d="M70,75.58a.49.49,0,0,1,.38.16.52.52,0,0,1,.14.36V87.35a6.44,6.44,0,0,1-.91,3.38,7.12,7.12,0,0,1-2.42,2.43,6.37,6.37,0,0,1-3.36.91,6.44,6.44,0,0,1-3.38-.91A7.07,7.07,0,0,1,58,90.73a6.44,6.44,0,0,1-.91-3.38V76.1a.48.48,0,0,1,.14-.36.49.49,0,0,1,.4-.16.5.5,0,0,1,.39.16.46.46,0,0,1,.16.36V87.35A5.45,5.45,0,0,0,59,90.2a5.67,5.67,0,0,0,2,2.06,5.59,5.59,0,0,0,5.66,0,5.86,5.86,0,0,0,2-2.06,5.46,5.46,0,0,0,.77-2.85V76.1a.51.51,0,0,1,.52-.52Z"/><path d="M85.67,75.48a.46.46,0,0,1,.39.18.53.53,0,0,1,.13.31.48.48,0,0,1,0,.18.46.46,0,0,1-.07.16L79.91,84.7l.24-.76v9.35a.5.5,0,0,1-.16.37.53.53,0,0,1-.39.15.52.52,0,0,1-.4-.15.53.53,0,0,1-.15-.37V84.12l.14.55-6.1-8.36a.8.8,0,0,1-.08-.16A.9.9,0,0,1,73,76a.44.44,0,0,1,.18-.35.55.55,0,0,1,.36-.14.51.51,0,0,1,.45.23l5.78,7.89-.26,0,5.73-7.84A.48.48,0,0,1,85.67,75.48Z"/></svg>