<svg xmlns="http://www.w3.org/2000/svg" xmlns:xlink="http://www.w3.org/1999/xlink" viewBox="0 0 62 62"><defs><symbol id="a" viewBox="0 0 64.5 62.88"><path d="M42.43,62.88a15.73,15.73,0,0,1-10.18-3.71,15.79,15.79,0,0,1-24.8-18A15.8,15.8,0,0,1,0,27.74a15.56,15.56,0,0,1,.78-4.87A15.83,15.83,0,0,1,16.92,12a15.8,15.8,0,0,1,30.66,0A15.85,15.85,0,0,1,63.72,22.87a15.56,15.56,0,0,1,.78,4.87,15.8,15.8,0,0,1-7.45,13.41A15.83,15.83,0,0,1,51.7,59.86,15.64,15.64,0,0,1,42.43,62.88ZM32.25,57.29l.47.43A14.39,14.39,0,0,0,55.53,41.15l-.26-.58.55-.32a14.39,14.39,0,0,0-8.71-26.81l-.64.07-.12-.62a14.4,14.4,0,0,0-28.2,0l-.13.62-.63-.07A14.39,14.39,0,0,0,8.68,40.25l.55.32L9,41.15A14.39,14.39,0,0,0,31.78,57.72Z"/><path d="M32.25,37.52a1,1,0,0,1-1-1v-8a1,1,0,0,1,2,0v8A1,1,0,0,1,32.25,37.52Z"/><path d="M34.5,28.61a2.26,2.26,0,1,0-2.25,2.26A2.25,2.25,0,0,0,34.5,28.61Z"/><path d="M32.25,37.34a1,1,0,0,1-.71-.29,1,1,0,0,1,0-1.41L37.21,30a1,1,0,0,1,1.42,1.42L33,37.05A1,1,0,0,1,32.25,37.34Z"/><path d="M39.44,32.35a2.26,2.26,0,1,0-3.19,0A2.26,2.26,0,0,0,39.44,32.35Z"/><path d="M32.25,37.34a1,1,0,0,1-.71-.29l-5.67-5.67a1,1,0,0,1,0-1.42,1,1,0,0,1,1.41,0L33,35.64a1,1,0,0,1,0,1.41A1,1,0,0,1,32.25,37.34Z"/><path d="M28.25,29.16a2.26,2.26,0,1,0,0,3.19A2.24,2.24,0,0,0,28.25,29.16Z"/></symbol></defs><use width="64.5" height="62.88" transform="translate(1.05 1.8) scale(0.93)" xlink:href="#a"/></svg>