<svg xmlns="http://www.w3.org/2000/svg" viewBox="0 0 62 62"><path d="M61,27.57A14.55,14.55,0,0,0,60.23,23a14.72,14.72,0,0,0-15-10.1,14.67,14.67,0,0,0-28.48,0A14.67,14.67,0,0,0,8,40,14.67,14.67,0,0,0,31,56.75,14.67,14.67,0,0,0,54,40,14.68,14.68,0,0,0,61,27.57ZM37.67,31.84a2.09,2.09,0,0,1-2.14.5L31.87,36a.9.9,0,0,1-1.74,0l-3.66-3.65A2.09,2.09,0,1,1,27.79,31l2.28,2.29V30.24a2.07,2.07,0,0,1-1.17-1.86,2.1,2.1,0,0,1,4.2,0,2.07,2.07,0,0,1-1.17,1.86v3.07L34.21,31a2.09,2.09,0,1,1,3.46.82Z" fill="#fff"/></svg>