<?xml version="1.0" encoding="utf-8"?>
<!-- Generator: Adobe Illustrator 26.2.1, SVG Export Plug-In . SVG Version: 6.00 Build 0)  -->
<svg version="1.1" xmlns="http://www.w3.org/2000/svg" xmlns:xlink="http://www.w3.org/1999/xlink" x="0px" y="0px"
	 viewBox="0 0 772 142" enable-background="new 0 0 772 142" xml:space="preserve">
<path fill="#D7254E" stroke="#D7254E" stroke-width="2" stroke-miterlimit="10" d="M282,134.6h-4.3l0.2-2.1h4.3c2,0,3.2-1.2,3.4-3
	l1.7-19.2h2.5l-1.7,19.2C287.7,132.6,285.4,134.6,282,134.6z"/>
<path fill="#D7254E" stroke="#D7254E" stroke-width="2" stroke-miterlimit="10" d="M310.3,120.6l-1.2,14h-2.2l0.1-2.5
	c-1.7,1.9-4,2.6-6.5,2.6c-3.6,0-6-1.5-5.6-5.4c0.3-3.6,2.3-5.2,4.9-5.9c1.3-0.3,2.7-0.4,4-0.4s2.7,0,3.9,0.1l0.2-2.3
	c0.2-2.5-2-2.9-4.1-2.9h-6.3l0.2-2h6.4C307.4,115.7,310.6,116.7,310.3,120.6z M297.4,129.1c-0.2,2.7,1.4,3.5,3.7,3.5
	c2.1,0,4.3-0.8,5.9-2.4l0.5-5.3h-4.3C300.2,124.8,297.7,125.5,297.4,129.1z"/>
<path fill="#D7254E" stroke="#D7254E" stroke-width="2" stroke-miterlimit="10" d="M332,120.8l-0.8,8.6c-0.3,3.4-2.7,5.2-7,5.2h-5.6
	l-0.5,5.6h-2.5l1.7-19.4c0.3-3.4,2.6-5.1,6.9-5.1h1.6C330.2,115.7,332.3,117.4,332,120.8z M325.7,117.9h-1.6c-2.4,0-4,0.3-4.3,3.3
	l-1,11.4h5.7c2.1,0,3.9-0.4,4.2-3.3l0.7-8.1C329.6,118.2,328.1,117.9,325.7,117.9z"/>
<path fill="#D7254E" stroke="#D7254E" stroke-width="2" stroke-miterlimit="10" d="M352.8,120.6l-1.2,14h-2.2l0.1-2.5
	c-1.7,1.9-4,2.6-6.5,2.6c-3.6,0-6-1.5-5.6-5.4c0.3-3.6,2.3-5.2,4.9-5.9c1.3-0.3,2.7-0.4,4-0.4s2.7,0,3.9,0.1l0.2-2.3
	c0.2-2.5-2-2.9-4.1-2.9h-6.3l0.2-2h6.4C349.9,115.7,353.1,116.7,352.8,120.6z M339.9,129.1c-0.2,2.7,1.4,3.5,3.7,3.5
	c2.1,0,4.3-0.8,5.9-2.4l0.5-5.3h-4.3C342.7,124.8,340.2,125.5,339.9,129.1z"/>
<path fill="#D7254E" stroke="#D7254E" stroke-width="2" stroke-miterlimit="10" d="M372.2,121.1c0.2-2.2-0.8-3.5-3-3.5
	c-2.4,0-5.5,1.8-6.7,3.5l-1.2,13.5h-2.5l1.6-18.5h2.1l-0.1,2.8c2.2-2.2,5.2-3.4,7.7-3.4c3.2,0,5,2.1,4.7,5.5l-1.2,13.5H371
	L372.2,121.1z"/>
<path fill="#D7254E" stroke="#D7254E" stroke-width="2" stroke-miterlimit="10" d="M400.6,120.4c0.6,0.3,1.4,0.4,2.2,0.6
	c0.8,0.2,1.7,0.3,2.5,0.4c3.4,0.5,6.9,1.2,6.5,5.2l-0.3,2.9c-0.3,4-4.1,5.2-7.5,5.2h-8.7l0.2-2.2h8.7c2.3,0,4.5-0.5,4.8-3.2l0.2-2.5
	c0.1-1.4-0.7-2.1-2-2.6c-0.6-0.2-1.4-0.4-2.2-0.5c-0.8-0.1-1.7-0.2-2.5-0.4c-3.4-0.5-6.8-1.4-6.4-5.7l0.2-2.2c0.3-3.9,3.5-5.1,7-5.1
	h8.3l-0.2,2.2h-8.5c-2,0-3.8,0.9-4,3.1l-0.2,2C398.5,119,399.3,119.9,400.6,120.4z"/>
<path fill="#D7254E" stroke="#D7254E" stroke-width="2" stroke-miterlimit="10" d="M425.7,134.6h-1.7c-4.3,0-6.3-1.8-6-5.3l1.2-13.5
	h2.6l-1.2,13.2c-0.3,3.2,1.6,3.5,3.6,3.5h1.7c2.3,0,4-0.3,4.3-3.2l1.2-13.5h2.6l-1.2,13.5C432.5,132.8,430.1,134.6,425.7,134.6z"/>
<path fill="#D7254E" stroke="#D7254E" stroke-width="2" stroke-miterlimit="10" d="M454.8,120.8l-0.8,8.6c-0.3,3.4-2.7,5.2-7,5.2
	h-5.6l-0.5,5.6h-2.5l1.7-19.4c0.3-3.4,2.6-5.1,6.9-5.1h1.6C453.1,115.7,455.1,117.4,454.8,120.8z M448.6,117.9h-1.6
	c-2.4,0-4,0.3-4.3,3.3l-1,11.4h5.7c2.1,0,3.9-0.4,4.2-3.3l0.7-8.1C452.5,118.2,450.9,117.9,448.6,117.9z"/>
<path fill="#D7254E" stroke="#D7254E" stroke-width="2" stroke-miterlimit="10" d="M476.2,120.9l-0.1,1c-0.3,4-3.5,4.9-7,4.9h-5.9
	c-0.1,0.9-0.1,1.7-0.2,2.4c0,0.7,0,1.3,0.2,1.8c0.3,1,1.2,1.5,3.3,1.5h7.4l-0.2,2.2h-7.4c-4.1,0-6.2-1.2-5.8-5.6l0.7-8.1
	c0.3-4,3.5-5.2,6.9-5.2h2C473.5,115.7,476.5,116.9,476.2,120.9z M463.8,121.2l-0.3,3.6h5.9c2.5,0,4-0.4,4.2-3.3
	c0.3-3.1-0.7-3.6-3.6-3.6h-2C465.4,117.9,464,118.3,463.8,121.2z"/>
<path fill="#D7254E" stroke="#D7254E" stroke-width="2" stroke-miterlimit="10" d="M486.5,118.7c0.4-0.5,0.9-1,1.4-1.5
	c1.1-0.9,2.6-1.5,4.7-1.5h0.5l-0.2,2.2h-0.5c-1.8,0-2.9,0.4-3.9,1.2c-0.5,0.4-1,0.9-1.5,1.4c-0.5,0.6-1.1,1.2-1.8,2l-1.1,12.1h-2.6
	l1.7-18.9h2.1l-0.1,4.5L486.5,118.7z"/>
<path fill="#D7254E" stroke="#D7254E" stroke-width="2" stroke-miterlimit="10" d="M506.8,110.2h8.4l-0.2,2.2h-8
	c-2.8,0-4.7,0.2-5,3.6l-1.1,13c-0.3,3.5,1.5,3.5,4.4,3.5h8l-0.2,2.2h-8.4c-3.8,0-6.7-1.1-6.3-5.4l1.2-13.7
	C499.9,111.2,503,110.2,506.8,110.2z"/>
<path fill="#D7254E" stroke="#D7254E" stroke-width="2" stroke-miterlimit="10" d="M534.8,120.6l-1.2,14h-2.2l0.1-2.5
	c-1.7,1.9-4,2.6-6.5,2.6c-3.6,0-6-1.5-5.6-5.4c0.3-3.6,2.3-5.2,4.9-5.9c1.3-0.3,2.7-0.4,4-0.4s2.7,0,3.9,0.1l0.2-2.3
	c0.2-2.5-2-2.9-4.1-2.9H522l0.2-2h6.4C532,115.7,535.2,116.7,534.8,120.6z M522,129.1c-0.2,2.7,1.4,3.5,3.7,3.5
	c2.1,0,4.3-0.8,5.9-2.4l0.5-5.3h-4.3C524.8,124.8,522.3,125.5,522,129.1z"/>
<path fill="#D7254E" stroke="#D7254E" stroke-width="2" stroke-miterlimit="10" d="M545.7,118.7c0.4-0.5,0.9-1,1.4-1.5
	c1.1-0.9,2.6-1.5,4.7-1.5h0.5l-0.2,2.2h-0.5c-1.8,0-2.9,0.4-3.9,1.2c-0.5,0.4-1,0.9-1.5,1.4s-1.1,1.2-1.8,2l-1.1,12.1h-2.6l1.7-18.9
	h2.1l-0.1,4.5L545.7,118.7z"/>
<path fill="#D7254E" stroke="#D7254E" stroke-width="2" stroke-miterlimit="10" d="M567.1,134.6l10.8-24.4h3.6l6.6,24.4h-2.8l-2-7.8
	h-10.1l-3.3,7.8H567.1z M574.1,124.6h8.6l-3.2-12.7L574.1,124.6z"/>
<path fill="#D7254E" stroke="#D7254E" stroke-width="2" stroke-miterlimit="10" d="M597.6,120.7c-0.1,1.3,0.5,2.1,1.6,2.6
	c0.5,0.2,1.1,0.4,1.8,0.6c0.7,0.1,1.4,0.3,2.1,0.4c2.9,0.6,5.8,1.4,5.5,5.2c-0.4,4.4-3.9,5.2-7.6,5.2h-6.8l0.2-2.2h6.7
	c2,0,4.8-0.3,5-2.9c0.1-1.4-0.6-2.1-1.6-2.6c-0.6-0.2-1.2-0.4-1.9-0.5c-0.7-0.1-1.4-0.2-2.1-0.4c-2.9-0.5-5.8-1.3-5.5-5.3
	c0.3-4,3.5-5,6.9-5h6.7l-0.2,2.1h-6.1C600.2,117.9,597.9,118,597.6,120.7z"/>
<path fill="#D7254E" stroke="#D7254E" stroke-width="2" stroke-miterlimit="10" d="M617.4,120.7c-0.1,1.3,0.5,2.1,1.6,2.6
	c0.5,0.2,1.1,0.4,1.8,0.6c0.7,0.1,1.4,0.3,2.1,0.4c2.9,0.6,5.8,1.4,5.5,5.2c-0.4,4.4-3.9,5.2-7.6,5.2H614l0.2-2.2h6.7
	c2,0,4.8-0.3,5-2.9c0.1-1.4-0.6-2.1-1.6-2.6c-0.6-0.2-1.2-0.4-1.9-0.5c-0.7-0.1-1.4-0.2-2.1-0.4c-2.9-0.5-5.8-1.3-5.5-5.3
	c0.3-4,3.5-5,6.9-5h6.7l-0.2,2.1H622C619.9,117.9,617.6,118,617.4,120.7z"/>
<path fill="#D7254E" stroke="#D7254E" stroke-width="2" stroke-miterlimit="10" d="M649.9,121.1l-0.7,8.2c-0.3,3.6-2.7,5.3-7,5.3
	h-1.7c-4.3,0-6.3-1.8-6-5.3l0.7-8.2c0.3-3.6,2.6-5.4,7-5.4h1.7C648.1,115.7,650.2,117.6,649.9,121.1z M643.7,117.9h-1.8
	c-2.3,0-3.9,0.3-4.2,3.3l-0.7,7.8c-0.3,3.2,1.6,3.5,3.6,3.5h1.7c2.3,0,4-0.3,4.3-3.2l0.7-8C647.6,118.2,646,117.9,643.7,117.9z"/>
<path fill="#D7254E" stroke="#D7254E" stroke-width="2" stroke-miterlimit="10" d="M658.8,121.2l-0.7,8c-0.3,2.9,1.3,3.2,3.7,3.2h6
	l-0.1,2.2h-6.1c-4.4,0-6.3-1.7-6-5.1l0.8-8.6c0.3-3.4,2.7-5.2,6.9-5.2h6l-0.1,2.1H663C660.6,117.9,659,118.2,658.8,121.2z"/>
<path fill="#D7254E" stroke="#D7254E" stroke-width="2" stroke-miterlimit="10" d="M676.6,134.6h-2.5l1.7-18.9h2.5L676.6,134.6z
	 M678.5,112.5H676l0.3-3.5h2.5L678.5,112.5z"/>
<path fill="#D7254E" stroke="#D7254E" stroke-width="2" stroke-miterlimit="10" d="M698.9,120.6l-1.2,14h-2.2l0.1-2.5
	c-1.7,1.9-4,2.6-6.5,2.6c-3.6,0-6-1.5-5.6-5.4c0.3-3.6,2.3-5.2,4.9-5.9c1.3-0.3,2.7-0.4,4-0.4s2.7,0,3.9,0.1l0.2-2.3
	c0.2-2.5-2-2.9-4.1-2.9h-6.3l0.2-2h6.4C696.1,115.7,699.3,116.7,698.9,120.6z M686,129.1c-0.2,2.7,1.4,3.5,3.7,3.5
	c2.1,0,4.3-0.8,5.9-2.4l0.5-5.3h-4.3C688.9,124.8,686.4,125.5,686,129.1z"/>
<path fill="#D7254E" stroke="#D7254E" stroke-width="2" stroke-miterlimit="10" d="M715.9,117.7h-5.6l-1,11.9
	c-0.2,1.7,0.1,2.8,2.1,2.8h3.3l-0.1,2.2H711c-3.2,0-4.6-1.6-4.3-5l1-11.9H705l0.2-1.9h2.8l0.5-4.7h2.4l-0.4,4.7h5.6L715.9,117.7z"/>
<path fill="#D7254E" stroke="#D7254E" stroke-width="2" stroke-miterlimit="10" d="M723.2,134.6h-2.5l1.7-18.9h2.5L723.2,134.6z
	 M725.1,112.5h-2.5l0.3-3.5h2.5L725.1,112.5z"/>
<path fill="#D7254E" stroke="#D7254E" stroke-width="2" stroke-miterlimit="10" d="M745.8,121.1l-0.7,8.2c-0.3,3.6-2.7,5.3-7,5.3
	h-1.7c-4.3,0-6.3-1.8-6-5.3l0.7-8.2c0.3-3.6,2.6-5.4,7-5.4h1.7C744,115.7,746.1,117.6,745.8,121.1z M739.6,117.9h-1.8
	c-2.3,0-3.9,0.3-4.2,3.3l-0.7,7.8c-0.3,3.2,1.6,3.5,3.6,3.5h1.7c2.3,0,4-0.3,4.3-3.2l0.7-8C743.5,118.2,741.9,117.9,739.6,117.9z"/>
<path fill="#D7254E" stroke="#D7254E" stroke-width="2" stroke-miterlimit="10" d="M764.9,121.1c0.2-2.2-0.8-3.5-3-3.5
	c-2.4,0-5.5,1.8-6.7,3.5l-1.2,13.5h-2.5l1.6-18.5h2.1l-0.1,2.8c2.2-2.2,5.2-3.4,7.7-3.4c3.2,0,5,2.1,4.7,5.5l-1.2,13.5h-2.6
	L764.9,121.1z"/>
<path fill="#231815" d="M325.6,95.2h-7.9v-4.9h-24.5v4.9h-8V34.9h40.5V95.2z M317.6,58V44.1h-24.5V58H317.6z M317.6,81.1V66.8h-24.5
	v14.3H317.6z"/>
<path fill="#231815" d="M357.2,61.2c-5,8.9-11,17-18.2,24.3l-6.1-6c8.9-8.4,16.2-17.9,21.7-28.5h-18.7v-8.7h21.1V32h7.7v10.2h21.4
	v8.7h-18.9c5.5,10.4,12.8,19.9,22,28.4l-6.2,6.1c-7.2-7.2-13.4-15.4-18.5-24.6v14.4h9.4V84h-9.3v11.8h-7.7V84h-9v-8.6h9.2V61.2z"/>
<path fill="#231815" d="M441.1,91.7c-8.5-2.6-15.2-8.3-19.9-17.3c-4,4.5-8.6,8.2-13.8,11.1c-4.8,2.7-9.7,4.6-14.8,5.5V79.9
	c6.7-1.9,12.7-5.4,17.9-10.4c5.9-5.7,9.7-12.4,11.5-20.1h-26.5V38.4h39.3c-0.3,9.4-2.4,18-6.5,25.7c2.3,6.7,6.6,11.8,12.9,15.2V91.7
	z"/>
<path fill="#231815" d="M477,66.7h-37.3V55.5H477V66.7z"/>
<path fill="#231815" d="M497.3,42.9c0,26.2-6.9,42.4-20.7,48.7V79c6.6-6.4,10-18.5,10-36v-5.6h10.8V42.9z M526.1,91.5
	c-13.9-6.3-20.8-22.5-20.8-48.6v-5.6h10.9v5.8c0,17.4,3.3,29.3,9.8,35.7V91.5z M529.8,40.8c0,1.9-0.6,3.6-1.8,4.9
	c-1.2,1.4-2.7,2-4.4,2c-1.7,0-3.2-0.7-4.4-2c-1.2-1.4-1.8-3-1.8-4.9s0.6-3.6,1.8-4.9c1.2-1.4,2.7-2,4.4-2c1.7,0,3.2,0.7,4.4,2
	C529.2,37.2,529.8,38.8,529.8,40.8z M526,40.8c0-0.7-0.2-1.4-0.7-1.9c-0.5-0.5-1.1-0.8-1.8-0.8c-0.7,0-1.2,0.3-1.7,0.8
	c-0.5,0.5-0.7,1.2-0.7,1.9c0,0.8,0.2,1.4,0.7,2c0.5,0.5,1,0.8,1.7,0.8c0.7,0,1.2-0.3,1.7-0.8S526,41.5,526,40.8z"/>
<path fill="#231815" d="M563.5,66.7h-37.3V55.5h37.3V66.7z"/>
<path fill="#231815" d="M614.8,75.1c0,5.4-1.1,9.4-3.2,11.8c-2.2,2.5-5.5,3.7-10.2,3.7H591V79.7h7.9c1.8,0,3-0.4,3.8-1.2
	c0.7-0.8,1.1-2.2,1.1-4.2V55.9h-12c-0.7,9.4-3.3,17.3-8,23.7c-4.2,5.7-9.5,9.6-16,11.6V79.5c8.3-5,12.7-12.9,13.2-23.6h-13.2V45.2
	h13.3v-9h10.8v9h22.9V75.1z"/>
<path fill="#231815" d="M655.4,66.7h-37.3V55.5h37.3V66.7z"/>
<path fill="#231815" d="M675.5,57.5h-4.7V96h-7.3V57.5h-5.1v-9.4h5.1V31.8h7.3v16.3h4.7V57.5z M680,89.1c-0.9,2.7-1.9,5.3-3.2,7.6
	l-5.5-4.8c3.3-5.7,5-12,5.4-19h-4v-8h4.1v-5.2h4.7l-5.1-4.2c5.3-3.1,8.5-6.7,9.8-11h-8.7v-8h9.8c0-1.1,0.1-2.8,0.2-5.2h7.5
	c-0.1,1.8-0.2,3.5-0.3,5.2h13.1V46c0,5.1-0.6,8.5-1.7,10.2c-1.1,1.7-3.5,2.5-7,2.5h-6.5l-1.8-6.2c-1.8,3.2-4.2,6-7.4,8.4V65h7.3V84
	c0,4.8-0.4,8-1.3,9.5c-0.8,1.5-2.6,2.3-5.2,2.3h-2.5L680,89.1z M682.8,72.9c-0.2,5.2-1,10-2.2,14.4h2.2c0.8,0,1.4-0.3,1.7-0.9
	c0.3-0.6,0.5-1.9,0.5-4.1v-9.4H682.8z M698.9,89.6c-0.8,2.6-1.9,4.9-3.1,7.1l-5.6-5c3.3-5.8,5.1-12,5.4-18.7H692v-8h3.7v-5.2h6.8V65
	h8.4V84c0,5-0.4,8.2-1.3,9.6c-0.8,1.4-2.6,2.2-5.3,2.2h-3.9L698.9,89.6z M693.8,44.5c-0.6,2.6-1.3,4.8-2.1,6.6h5.6
	c1.5,0,2.4-0.5,2.8-1.4c0.2-0.5,0.3-1.9,0.3-4.2v-1H693.8z M701.8,72.9c-0.2,5.2-1,10-2.2,14.4h2.6c0.8,0,1.4-0.3,1.7-0.9
	c0.3-0.6,0.5-1.9,0.5-4.1v-9.4H701.8z"/>
<path fill="#231815" d="M756.1,58.7h-28.1v-5c-2.8,2.4-5.8,4.5-8.8,6.3l-5.1-7.3c9.6-5.3,17.4-12.4,23.6-21.1h8.4
	c6.4,8.5,14.5,15.4,24.3,20.6l-5.1,7.6c-3-1.7-6.1-3.8-9.3-6.3V58.7z M755.7,90.9c-11.4,2.4-23.1,4-35.2,4.8l-2.5-9.2
	c2.9-0.1,5.6-0.2,8.2-0.4c2.4-4.8,4.5-9.5,6.3-13.9h-15v-8.7H767v8.7h-26c-1.5,3.6-3.4,8-5.9,13.2c5-0.4,10.2-1,15.8-1.8
	c-1.9-2.7-3.7-5.2-5.4-7.3l7-3.2c4.4,5.3,9,11.6,13.7,18.9l-7.5,3.9C757.6,94,756.6,92.3,755.7,90.9z M731.9,50.3h20.4
	c-4-3.6-7.5-7.2-10.4-10.9C738.9,43.3,735.6,46.9,731.9,50.3z"/>
<path fill="#231815" d="M302.8,10.7l2.6,2.8c0.5,0.6,0.4,1.7-0.2,1.9h-21.6l-0.2-1.5h17.2L302.8,10.7z"/>
<path fill="#231815" d="M309.8,16.2l-0.2,0.4c-0.3,0.4-0.5,0.4-0.8-0.1l-1-2.8h2.5V8.6c0-1.2,0-2.4-0.1-3.7l2.3,1.3
	c0.3-1.5,0.4-2.9,0.6-4.3l2.5,0.9c0.4,0.3,0.4,0.6,0.1,1.1l-0.5,0.3c-0.4,0.5-0.9,1.2-1.5,2h2.2l0.9-1.6l2,2.2
	c0.3,0.4,0.3,0.7-0.2,0.9l-0.3,0.1v5.8h0.2c0.5-0.7,0.9-1.4,1.2-2.2c0.4-1.1,0.7-2.4,0.8-4.1l0.1-4.4l2.4,1.3h1.7l0.8-1.6l2.1,2.1
	c0.4,0.4,0.3,0.7-0.1,1.1l-0.5,0.3v3.7c0,0.4,0.1,0.6,0.2,0.6c0.7,0.2,1.2,0,1.5-0.6c0.1-0.4,0.4-1.2,0.9-2.6
	c0.3-0.7,0.5-0.6,0.6,0.2c-0.1,0.4-0.1,0.7-0.1,1.1c0,0.4,0,0.7-0.1,1.1c0,0.4,0.1,0.7,0.2,0.8l0.4,0.3c0.4,0.6,0.4,1.1,0,1.6
	c-0.6,0.6-2.1,0.8-4.3,0.5c-0.6-0.1-1-0.2-1.2-0.4s-0.3-0.6-0.3-1.3V4.9h-1.8c-0.1,1.8-0.1,3-0.2,3.6c-0.1,1.2-0.4,2.1-0.9,2.8
	c-0.5,0.8-1.3,1.5-2.4,2.2l0.4-0.1c0.9,0.1,0.8,0.4-0.2,0.7c-0.3,0.1-0.7,0.2-1.2,0.3v9.3c0,0.5-0.1,0.9-0.4,1.3
	c-0.4,0.6-1,1.1-1.6,1.3c-0.8,0.3-1.1,0.1-1.1-0.5v-0.4c0-0.1-0.1-0.3-0.3-0.4c-0.3-0.1-0.5-0.3-0.9-0.4c-0.5-0.2-1-0.5-1.5-0.7
	c-0.1-0.3,0-0.4,0.5-0.4c1.4,0.1,2.2,0.2,2.4,0.2c0.7,0,1-0.3,1-0.9v-7.6l-1.2,0.2v6.3c0,0.3,0,0.5-0.1,0.5
	c-0.1,0.1-0.3,0.2-0.7,0.3c-0.8,0.2-1.1,0-1.1-0.5v-6.2l-0.8,0.1c-0.1,3-0.4,5.2-0.9,6.6c-0.6,1.9-1.5,3.3-2.6,4.2
	c-0.4,0.4-0.4-0.1,0.1-1.5c0.7-1.8,1.1-4.7,1.2-9H309.8z M312.2,7v6.9c1.7,0,3.1,0,4.1-0.1V7H312.2z M312.9,9.2
	c-0.5-1-0.5-1.3,0.1-1.1c1.2,0.6,1.9,1.4,2.2,2.4c0.4,1.3,0,2.1-1,2.2c-0.5,0-0.8-0.4-0.9-1.1C313.2,10.4,313,9.5,312.9,9.2z
	 M324.1,22.9c-1.6,1.5-3.3,2.6-5,3.4c-1.3,0.4-1.6,0.4-1.1-0.2c1.8-1.3,3.4-2.9,4.8-4.6c-1.1-1.8-1.9-3.7-2.4-5.7h-1.3l-0.4-0.7h6.9
	l1.1-1.6l2.1,2.3c0.4,0.4,0.2,0.8-0.8,1.3c-0.7,1.4-1.6,2.8-2.6,4.2c1.4,0.8,3.3,1.5,5.6,1.9c-1,0.7-1.7,1.7-2.2,3
	c-0.7-0.2-1.5-0.6-2.4-1.2C325.7,24.4,324.9,23.7,324.1,22.9z M321.2,15.7c0.6,1.8,1.5,3.1,2.6,4.1c0.9-1.6,1.6-3,1.9-4.1H321.2z"/>
<path fill="#231815" d="M335.6,16.1c-0.2,0.2-0.5,0.5-1,0.9c-0.8,0.6-1.4,1.1-2,1.5c-0.6,0.2-0.6,0-0.1-0.6c0.8-0.8,1.6-1.8,2.3-2.7
	c1.7-2.4,3-4.7,3.9-7h-6l-0.2-0.7h3.1V1.8l3,0.5c0.8,0.4,0.8,0.8,0.2,1.3L338,3.9v3.6h0.8l0.9-1.6l2,2.1c0.4,0.4,0.3,0.7-0.2,0.9
	L341,9.2c-0.3,0.5-0.5,1-0.9,1.5c-0.3,0.5-1,1.4-2.1,2.7v0.8c1.1,0.2,1.9,0.5,2.4,0.7c0.9,0.6,1.3,1.3,1.3,2.2
	c0,0.8-0.3,1.2-0.8,1.4c-0.8,0.2-1.2,0-1.4-0.7c-0.4-1.5-0.9-2.5-1.5-3.1v10.7c0.1,0.4-0.2,0.7-0.7,0.9c-0.6,0.3-1,0.4-1.4,0.3
	c-0.2-0.1-0.3-0.2-0.4-0.5V16.1z M348.3,24.2h2.7l1.7-2.5l2.3,2.3c0.4,0.5,0.4,0.8-0.2,0.9h-15.6l-0.2-0.7h6.6v-12h-4.9l-0.2-0.7
	h5.1V2.1l3.1,0.4c0.5,0.2,0.5,0.6,0.1,1.2l-0.6,0.4v7.4h2l1.5-2.2l2.1,2.1c0.4,0.4,0.3,0.7-0.2,0.8h-5.4V24.2z"/>
<path fill="#231815" d="M360.6,25.1v0.7c0,0.4-0.1,0.7-0.3,0.7c-0.2,0.1-0.5,0.2-0.9,0.3c-0.9,0.1-1.4,0-1.4-0.4V2.3l2.9,1.5h14
	l0.9-1.9l2.7,3c0.4,0.4,0.3,0.8-0.1,1.1l-0.6,0.3v19.1c0,0.4-0.1,0.6-0.4,0.7c-0.3,0.1-0.6,0.2-0.9,0.3c-0.9,0.1-1.3,0-1.3-0.4v-0.8
	H360.6z M360.6,4.5v19.8h14.6V4.5H360.6z M369.1,11.1h-7.8l-0.2-0.7h8v-5l2.7,0.3c0.4,0.1,0.4,0.6,0.1,1.3l-0.3,0.3v3.1h0.3l1.1-2.4
	l1.5,2.2c0.3,0.5,0.3,0.8-0.1,0.9h-2.8v10c0,0.4,0,0.7-0.1,0.8c-0.1,0.4-0.6,0.7-1.5,1.2c-0.6,0.4-1.2,0.4-1.6,0
	c-0.1-0.6-0.1-0.9-0.2-1.1c-0.1-0.1-0.3-0.3-0.7-0.4c-0.8-0.4-1.6-0.7-2.2-0.9c-0.4-0.1-0.4-0.3-0.2-0.5c0.5,0,1.2,0,2,0.1
	c0.7,0.1,1.3,0.1,1.7,0c0.2-0.1,0.3-0.4,0.3-0.8V11.1z M362.5,13c-0.2-0.4,0.1-0.5,0.9-0.3c1.4,0.6,2.3,1.2,2.8,2c0.6,1,0.8,2,0.6,3
	c-0.2,0.9-0.7,1.3-1.6,1.1c-0.4-0.1-0.8-0.4-0.9-1.1c-0.1-0.2-0.1-0.6-0.2-1.3C363.8,14.9,363.3,13.7,362.5,13z"/>
<path fill="#231815" d="M387.9,9c-2.2,7-3.3,10.6-3.3,10.9c-0.1,0.4,0,1.3,0.3,2.7c0.2,1,0.3,1.7,0.3,2.1c0,0.8-0.3,1.4-0.8,1.7
	c-0.8,0.6-1.5,0.5-2-0.3c-0.2-0.4-0.3-0.9-0.2-1.7c0-0.2,0.1-0.8,0.2-1.7c0.1-0.7,0-1.3-0.1-1.9c-0.1-0.2-0.3-0.6-0.9-1.1
	c-0.1-0.1-0.3-0.2-0.7-0.3c-0.3-0.1-0.3-0.2-0.3-0.3c0.1-0.4,0.9-0.5,2.2-0.1l5.8-13.5c0.3-0.5,0.4-0.4,0.4,0.2L388,8.2h4.7V2.1
	l3.1,0.2c0.7,0.2,0.8,0.6,0.2,1.3L395.4,4v4.2h3L400,6l2.2,2.1c0.4,0.4,0.3,0.7-0.2,0.8h-6.5v5.4h4l1.6-2.4l2.4,2.3
	c0.3,0.5,0.3,0.8,0,0.8c-0.1,0-0.3,0-0.4,0h-7.7l0.1,0.1c0.3,0.4,0.3,0.7-0.1,0.9l-0.5,0.2c-1.3,2.2-2.7,4.2-4,6l3.8-0.1h4.2
	c-0.3-0.7-0.5-1.2-0.8-1.6c-0.4-0.8-1.1-1.5-1.9-2.3c-0.4-0.4-0.3-0.6,0.4-0.4c2.3,0.8,4,1.9,5.1,3.5c0.4,0.6,0.8,1.2,0.9,2
	c0.3,0.9,0.2,1.7-0.1,2.2c-0.3,0.6-0.8,0.9-1.3,0.8c-0.6-0.1-1-0.5-1.2-1.2c-0.3-0.8-0.6-1.5-0.9-2.2l-4.1,0.7l-6.1,1.1l-0.6,0.9
	c-0.4,0.7-0.8,0.7-1.1,0.1l-1.7-3.7h4.5c0.4-1.2,0.7-2.3,1-3.4c0.4-1.7,0.8-3,0.9-3.8h-5.2l-0.4-0.7h6.4V9H387.9z M380.4,9.1
	c-0.1-0.2,0.2-0.3,0.7-0.2c0.8,0.1,1.4,0.4,2,0.7c0.6,0.4,0.9,0.8,1.1,1.5c0.2,0.6,0.2,1.2,0,1.7c-0.6,1-1.3,1.1-2.1,0.4
	c-0.2-0.4-0.3-1-0.5-1.9c-0.1-0.4-0.3-0.8-0.6-1.5C380.9,9.4,380.6,9.2,380.4,9.1z M385.2,7.9c-0.4,0.1-0.7-0.1-0.9-0.5
	c-0.2-0.5-0.4-1.2-0.6-2c-0.1-0.6-0.6-1.2-1.5-2c-0.3-0.4-0.1-0.5,0.6-0.4c1.8,0.2,2.9,0.9,3.5,2c0.3,0.6,0.4,1.2,0.3,1.8
	C386.4,7.4,386,7.8,385.2,7.9z"/>
<path fill="#231815" d="M416.9,11.5c-0.1,1.1-0.3,2.3-0.6,3.7c-0.4,2.2-1.2,4-2.2,5.4c-1.1,1.5-2.7,2.9-4.7,4
	c-1.1,0.6-2.2,1.1-3.2,1.4c-0.1,0-0.3,0-0.5,0.1c-0.6,0.1-0.7-0.1-0.3-0.5c1.5-0.7,3-1.8,4.4-3.2c1.4-1.4,2.4-3.2,3.1-5.4
	c0.6-1.7,0.9-3.7,1-5.9c0.2-3.1,0.3-5.9,0.2-8.4l3.5,0.4c0.9,0.1,1,0.6,0.5,1.4l-0.9,0.6c0,2.5,0.2,4.5,0.6,6.2
	c0.7,2.8,2.1,5.3,4.2,7.6c1.3,1.4,3.4,2.8,6.4,4.2c-1.4,0.8-2.3,1.8-2.8,3.1c-1.3-0.9-2.2-1.7-2.9-2.4c-1.6-1.5-2.8-3.3-3.8-5.2
	S417.3,14.3,416.9,11.5z"/>
<polygon fill="#018368" points="242.9,135.8 214.4,20 192.8,20 180.9,66.8 180.9,66.8 174.3,93.1 156.6,88.7 168.1,43.4 168.1,43.4 
	178.7,1.8 228.7,1.8 261.7,135.8 "/>
<path fill="#018368" d="M230.2,83.9c-3.2-12.5-14.4-19.7-27.4-19.7c-10.4,0-19.9,4.1-24.8,13.2l-16-8.7c8.1-15,23.8-22.7,40.8-22.7
	c21.3,0,39.8,12.8,45,33.4L230.2,83.9z"/>
<path fill="#018368" d="M120.6,135.8H75.7l4.9-18.2h40c15.6,0,32.1-13.3,36.1-28.9c1.8-7,0.8-13.4-2.7-17.9
	c-3.3-4.2-8.7-6.6-15.2-6.6c-7.2,0-14.1-1.2-20-3.4c-6.3-2.4-11.4-6-14.8-10.3c-4.5-5.8-6-12.8-4.2-19.7c2.1-8.4,8.9-16,19-21.4
	c9.1-4.9,20.2-7.5,31.2-7.5l0,0l44.9,0V20L150,20c-8,0-16.2,2-22.7,5.4c-5.4,2.9-9.1,6.6-9.9,9.9c-0.4,1.5-0.1,2.7,0.9,4.1
	c2.4,3.1,9.2,6.7,20.4,6.7c12.2,0,22.7,4.8,29.5,13.6c3.5,4.5,5.8,9.7,6.8,15.5c1,5.8,0.8,11.8-0.8,18c-2.9,11.5-10,22.2-20,30.2
	C144.1,131.4,132.2,135.8,120.6,135.8z"/>
<path fill="#018368" d="M20.3,135.8H1.5l11.9-47.1c2.9-11.5,10-22.2,20-30.2c10.1-8,22-12.5,33.6-12.5c8,0,16.2-2,22.7-5.4
	c5.4-2.9,9.1-6.6,9.9-9.9l2.7-10.8H69.3l4.9-18.2l51.7,0l-8.5,33.4c-2.1,8.4-8.9,16-19,21.4c-9.1,4.9-20.2,7.5-31.2,7.5
	c-15.6,0-32.1,13.3-36.1,28.9L20.3,135.8z"/>
</svg>
