<svg xmlns="http://www.w3.org/2000/svg" width="755.937" height="59.758" viewBox="0 0 755.937 59.758">
  <g id="LOGO" transform="translate(-71.215 -402.965)">
    <g id="Layer_4" data-name="Layer 4" transform="translate(438.672 412.608)">
      <path id="パス_1" data-name="パス 1" d="M675.236,451.769h-46.42l-.26-.017h-.228l-.13-.016h-.1l-.113-.015-.115-.017-.1-.017-.1-.017-.1-.032-.1-.017-.1-.032-.08-.017-.1-.033-.082-.032-.082-.05a1.313,1.313,0,0,1-.162-.08,1.412,1.412,0,0,1-.163-.082,1.613,1.613,0,0,0-.146-.1,1.3,1.3,0,0,1-.13-.113.537.537,0,0,1-.13-.115l-.13-.13a1.583,1.583,0,0,1-.115-.13,1.339,1.339,0,0,0-.113-.13s-.048-.065-.1-.147c0,0-.032-.065-.08-.147,0,0-.033-.065-.065-.146,0,0-.017-.032-.05-.113a.783.783,0,0,0-.048-.113,1.284,1.284,0,0,1-.033-.13.623.623,0,0,1-.032-.115.667.667,0,0,0-.017-.113.729.729,0,0,0-.016-.13V449.2a.731.731,0,0,1,.016-.13.665.665,0,0,1,.017-.115s.017-.048.032-.114a1.128,1.128,0,0,0,.033-.13s.017-.034.048-.114a.464.464,0,0,1,.065-.115h30.292l.392-.015.195-.017h.2l.178-.033.2-.017.195-.032.178-.033.195-.048.1-.017.082-.032.1-.016.1-.033.1-.032.08-.033.1-.032.082-.033.1-.048.1-.031.082-.05.1-.031.082-.05.082-.048.178-.1.18-.1.163-.113.178-.131.163-.113.162-.13.163-.147.163-.13.325-.294.652-.635,11.62-11.578H637.833l-.748.007-.44.01-.455.016-.488.032-.505.04-.522.065-.52.075-.553.1-.537.12-.277.065-.277.075-.277.072-.293.091-.277.088-.276.09-.277.1-.277.107-.277.105-.277.123-.277.12-.262.125-.277.137-.277.13-.52.293-.537.308-.505.325-.5.337-.488.357-.472.358-.455.365-.44.368-.423.363-.765.716-1.22,1.222-9.555,9.52h-3.532l-.294-.015h-.147l-.13-.017-.147-.017-.13-.016-.113-.032-.13-.017-.115-.032s-.065-.017-.113-.033c0,0-.065-.017-.113-.031,0,0-.065-.017-.115-.034a.419.419,0,0,0-.1-.048,1.016,1.016,0,0,0-.115-.05.4.4,0,0,1-.1-.048.55.55,0,0,0-.1-.048l-.1-.065-.1-.065a.84.84,0,0,1-.082-.065l-.1-.065s-.033-.033-.115-.1a1.7,1.7,0,0,0-.13-.114,1.556,1.556,0,0,0-.1-.132.561.561,0,0,1-.113-.113.6.6,0,0,0-.065-.082l-.065-.1a.87.87,0,0,0-.048-.082.892.892,0,0,1-.05-.082.507.507,0,0,1-.048-.1.5.5,0,0,1-.048-.1.863.863,0,0,0-.033-.082.5.5,0,0,1-.048-.1l-.033-.1a.385.385,0,0,0-.015-.1.34.34,0,0,1-.017-.1.2.2,0,0,1-.017-.082.344.344,0,0,1-.017-.1v-.2a.346.346,0,0,1,.017-.1v-.1a.776.776,0,0,0,.033-.082.387.387,0,0,1,.015-.1l.033-.1.033-.1a.522.522,0,0,0,.048-.1s.031-.05.048-.082l.065-.1.065-.1.065-.1.065-.1.082-.1.1-.1.1-.113.423-.44,36.785-37.582H633.226l-42.157,42.008h-3.515l-.31-.015h-.13l-.146-.017-.13-.017-.13-.016-.13-.032-.113-.017-.13-.032s-.05-.017-.115-.033c0,0-.048-.017-.113-.031l-.1-.034a.9.9,0,0,0-.113-.048.457.457,0,0,0-.1-.05.775.775,0,0,1-.113-.048.493.493,0,0,0-.1-.048l-.1-.065a.577.577,0,0,0-.082-.065l-.1-.065a.482.482,0,0,0-.082-.065s-.048-.033-.13-.1a.555.555,0,0,0-.113-.114,1.055,1.055,0,0,0-.113-.132,1.253,1.253,0,0,1-.1-.113.613.613,0,0,0-.065-.082l-.065-.1a.563.563,0,0,1-.065-.082.515.515,0,0,0-.048-.1s-.017-.032-.05-.082a.4.4,0,0,0-.048-.1l-.033-.1a.815.815,0,0,1-.032-.081l-.033-.1-.032-.1a.333.333,0,0,0-.017-.1.211.211,0,0,0-.017-.082v-.1a.324.324,0,0,1,0-.2v-.1a.332.332,0,0,1,.017-.1.215.215,0,0,1,.017-.082l.032-.1.033-.1.032-.1a.45.45,0,0,1,.05-.1.486.486,0,0,1,.048-.1s.017-.032.048-.082l.065-.1.065-.1.082-.1.082-.1.082-.115.1-.1.422-.44,11.752-12h-35.14l-.765.007-.423.01-.472.016-.472.032-.505.04-.52.065-.539.075-.536.1-.553.12-.277.065-.277.075-.277.072-.277.091-.277.088-.277.09-.293.1-.277.107-.277.105-.276.123-.26.12-.277.125-.277.137-.26.13-.538.293-.52.308-.522.325-.5.337-.488.357-.472.358-.457.365-.44.368-.407.363-.78.716-1.222,1.222-2.473,2.484-7.08,7.037h-3.517l-.308-.015h-.13l-.147-.017-.13-.017-.132-.016-.13-.032-.113-.017-.13-.032s-.048-.017-.113-.033c0,0-.05-.017-.115-.031l-.1-.034a.857.857,0,0,0-.115-.048.469.469,0,0,0-.1-.05.4.4,0,0,1-.115-.048.508.508,0,0,0-.1-.048l-.1-.065a.476.476,0,0,0-.082-.065l-.1-.065a.644.644,0,0,1-.082-.065s-.048-.033-.13-.1a.6.6,0,0,0-.115-.114s-.049-.05-.113-.132a1.266,1.266,0,0,1-.1-.113.6.6,0,0,0-.065-.082l-.065-.1a.742.742,0,0,1-.065-.082.527.527,0,0,0-.048-.1s-.017-.032-.048-.082a.453.453,0,0,0-.05-.1l-.031-.1a.616.616,0,0,1-.033-.081l-.032-.1-.033-.1a.337.337,0,0,0-.017-.1.233.233,0,0,0-.015-.082v-.1a.34.34,0,0,1-.017-.1v-.1a.344.344,0,0,0,.017-.1.368.368,0,0,1,.015-.1.218.218,0,0,1,.017-.082l.033-.1a.2.2,0,0,1,.032-.1l.033-.1a18.249,18.249,0,0,0,.1-.2s.017-.032.05-.082l.065-.1.065-.1.082-.1.08-.1.082-.115.1-.1.424-.44,36.783-37.582h-11.23l-25.652,25.58H507.621l-.748.007-.44.01-.455.016-.488.032-.505.04-.522.065-.52.075-.553.1-.537.12-.276.065-.277.075-.293.072-.277.091-.277.088-.277.09-.276.1-.277.107-.277.105-.276.123-.277.12-.277.125-.262.137-.277.13-.537.293-.52.308-.505.325-.5.337-.488.357-.472.358-.455.365-.44.368-.423.363-.765.716-1.22,1.222-9.555,9.52h-3.532l-.293-.015h-.147l-.13-.017-.147-.017-.113-.016-.13-.032-.13-.017-.115-.032s-.065-.017-.113-.033c0,0-.065-.017-.113-.031,0,0-.05-.017-.115-.034a.42.42,0,0,0-.1-.048,1.017,1.017,0,0,0-.115-.05.4.4,0,0,1-.1-.048.492.492,0,0,0-.1-.048l-.1-.065-.1-.065a.56.56,0,0,0-.082-.065l-.1-.065s-.033-.033-.115-.1a1.683,1.683,0,0,0-.13-.114s-.032-.05-.1-.132a.543.543,0,0,1-.115-.113.6.6,0,0,0-.065-.082l-.065-.1a.911.911,0,0,0-.048-.082.465.465,0,0,1-.05-.1.228.228,0,0,1-.048-.082.494.494,0,0,1-.048-.1l-.033-.1a.229.229,0,0,1-.048-.081l-.033-.1a.384.384,0,0,0-.015-.1,3.1,3.1,0,0,0-.033-.178.346.346,0,0,1-.017-.1v-.2a.349.349,0,0,1,.017-.1v-.1a.8.8,0,0,1,.033-.082.385.385,0,0,1,.015-.1l.033-.1.033-.1a.512.512,0,0,0,.048-.1.567.567,0,0,0,.048-.1.484.484,0,0,0,.065-.082l.065-.1.065-.1.065-.1.082-.1.1-.115.082-.1.438-.44,11.735-12H424.9l-.765.007-.423.01-.455.016-.488.032-.505.04-.52.065-.538.075-.537.1-.553.12-.277.065-.277.075-.277.072-.277.091-.277.088-.277.09-.277.1-.277.107-.277.105-.277.123-.277.12-.277.125-.26.137-.277.13-.538.293-.52.308-.505.325-.5.337-.488.357-.472.358-.455.365-.44.368-.423.363-.765.716-1.22,1.222-9.555,9.52H396.1l-.325-.015-.293-.017-.147-.017-.147-.016-.13-.015-.13-.017-.13-.033-.13-.015-.115-.033c-.065-.017-.113-.031-.113-.031a.912.912,0,0,0-.113-.05c-.05-.017-.115-.032-.115-.032a.45.45,0,0,0-.1-.05.538.538,0,0,0-.1-.048.473.473,0,0,0-.1-.048l-.1-.065a.244.244,0,0,0-.082-.05,1.462,1.462,0,0,1-.113-.1.584.584,0,0,1-.115-.115l-.1-.1a.934.934,0,0,1-.082-.113c-.048-.082-.082-.132-.082-.132-.017-.032-.048-.08-.048-.08a.581.581,0,0,0-.033-.082l-.032-.1a.75.75,0,0,0-.033-.082.339.339,0,0,0-.017-.1.384.384,0,0,1-.015-.1.342.342,0,0,0-.017-.1v-.293a.35.35,0,0,0,.017-.1.557.557,0,0,0,.015-.113l.033-.1c.017-.048.032-.113.032-.113l.033-.1c.017-.048.032-.113.032-.113a.443.443,0,0,0,.05-.1.968.968,0,0,1,.065-.113c.017-.048.048-.113.048-.113.033-.05.1-.163.1-.163l.082-.113.065-.115.1-.1.082-.115.1-.113.1-.13.1-.115.212-.227.488-.5,29.182-29.819,35.173-.423,7-6.973H361.23l-1.22.008-.635.017-.652.023-.635.048-.65.073-.327.042-.325.048-.31.057-.325.057-.308.067-.31.072-.308.073-.31.09-.31.09-.292.09-.277.105-.293.107-.277.113-.26.122-.262.122-.26.13-.243.132-.228.145-.228.138-.113.073-.1.073-.1.082-.115.073-.1.082-.082.073-.1.082-.082.082-.1.08-.163.163c-.065.082-.147.163-.147.163l-.065.082-.065.088-.065.082-.065.09-.065.082-.048.089-.05.09-.048.082-.048.09-.05.088-.032.09-.033.09-.032.082-.033.088-.015.09-.033.09-.017.088-.015.09-.017.09v.09l-.017.088v.26l.017.09v.09l.017.082.015.088.017.09.017.082.017.09.032.082.017.088.032.082.033.09.032.082.05.08.032.09a1.452,1.452,0,0,0,.082.163c.048.082.13.243.13.243l.1.155.1.163.115.153.212.3,11.23,16.1.245.358.113.18.048.09.048.1.05.088.048.09.048.088.033.1.048.1.033.1c.015.042.032.092.032.092a.424.424,0,0,0,.017.1l.033.1a.374.374,0,0,0,.015.1.348.348,0,0,1,.017.1.367.367,0,0,0,.017.107v.105a.468.468,0,0,0,.017.107v.105a.469.469,0,0,1-.017.107v.1l-.017.113v.107l-.017.105-.032.113-.017.115-.033.114-.032.108-.033.113-.048.113-.048.115-.033.113-.065.113-.048.105-.049.113-.065.115-.065.113-.067.113-.065.108-.065.113-.08.1-.067.113-.162.212-.18.222-.161.212-.2.211-.18.212-.407.413-.423.417-6.64,6.63-1.238,1.2-.618.57-.308.277-.31.26-.308.243-.31.245-.325.243-.325.212-.327.212-.325.2-.325.18-.18.1-.162.082-.163.082-.163.065-.178.082-.163.065-.178.065-.163.065-.178.065-.163.048-.178.05-.163.048-.178.048-.18.05-.163.032-.178.034-.342.065-.358.048-.342.033-.342.032-.358.017-.683.017-.7.015-51.557.016,2.987,4.282.237.341.138.2.147.178.163.195.178.212.187.2.1.1.1.1.107.113.105.1.115.1.113.082.115.1.122.1.122.1.122.082.13.082.13.1.132.082.13.082.138.082.138.065.147.082.138.065.146.065.145.065.147.065.147.065.155.048.155.048.155.05.145.048.163.049.155.033.155.048.153.033.318.065.325.048.318.048.317.033.317.017.318.015.618.017h55.275l.342-.017.358-.032.342-.017.342-.048.358-.048.178-.033.163-.033.178-.032.18-.048.178-.033.18-.048.162-.065.18-.05.178-.048.163-.065.178-.065.18-.082.162-.065.18-.082.178-.08.163-.082.179-.082.163-.1.342-.195.342-.2.342-.228.325-.229.344-.26.325-.243.342-.277.325-.277.327-.293.65-.6,1.318-1.3,13.007-12.923-.18.173.327-.325.325-.337.147-.162.147-.163.13-.163.13-.168.13-.173.065-.087.05-.082.065-.091.048-.088.048-.09.05-.088.048-.092.032-.082.05-.1.032-.081.05-.1.032-.087.017-.092.032-.088.033-.09.017-.089.015-.092.017-.088.017-.09v-.088a.347.347,0,0,1,.017-.092V437.2a.275.275,0,0,0-.017-.092v-.088a.226.226,0,0,0-.017-.08v-.091a.241.241,0,0,1-.017-.082c-.015-.038-.032-.088-.032-.088a.243.243,0,0,0-.017-.082l-.032-.08a1.067,1.067,0,0,0-.05-.163,1.179,1.179,0,0,0-.082-.163,1.208,1.208,0,0,0-.08-.162,1.434,1.434,0,0,0-.082-.163c-.048-.082-.163-.238-.163-.238l-.212-.315-10.483-15.033-.13-.178-.113-.172-.05-.08-.1-.163-.048-.122-.05-.122s-.017-.033-.048-.115a.576.576,0,0,0-.017-.113.358.358,0,0,1-.017-.122.745.745,0,0,0-.015-.115s.015-.017.015-.1a.724.724,0,0,1,.017-.1.349.349,0,0,1,.033-.113.316.316,0,0,1,.032-.107s.017-.04.05-.113a.669.669,0,0,0,.065-.115.712.712,0,0,0,.08-.105s.033-.04.082-.106a.85.85,0,0,1,.115-.105s.032-.033.1-.105c0,0,.048-.033.13-.1a.585.585,0,0,1,.082-.065l.082-.057.1-.065.1-.058.1-.056.1-.057.115-.057.114-.048.113-.05.115-.048.113-.04.13-.042.115-.04.13-.033.13-.032.13-.033.13-.031.147-.025.13-.025.147-.015.13-.025.147-.009.293-.032.308-.017.31-.008.652-.017,37.663-.44-31.12,31.024-1.3,1.318-.57.635-.277.292-.243.31-.228.293-.114.147-.1.13-.1.146-.1.147-.082.145-.082.131-.082.145-.08.132-.065.145-.067.132-.065.145-.048.132-.048.13-.05.13-.032.147-.033.13-.032.13-.034.13a.672.672,0,0,1-.015.13.6.6,0,0,1-.017.13v.5a.6.6,0,0,0,.017.13.444.444,0,0,0,.015.115.6.6,0,0,0,.017.13l.033.13a.625.625,0,0,0,.015.113.416.416,0,0,0,.05.115l.032.13a1.043,1.043,0,0,0,.05.113.368.368,0,0,0,.048.113.448.448,0,0,0,.048.115l.065.13.05.113.08.115.065.1.082.115.082.113.082.113.082.1.1.113.1.1.1.1.1.115.113.1.1.1.113.1.115.1.13.082.113.1.13.1.13.082.132.082.13.1.147.082.13.082.293.163.292.147.31.145.308.132.327.13.308.114.342.113.327.1.325.1.342.1.342.081.342.065.327.065.342.065.325.05.342.032.325.033.327.032.618.048.6.017,1.107.017,16.179.017h.391a.592.592,0,0,1,.13-.017c.065-.017.113-.033.113-.033a.261.261,0,0,0,.1-.015.437.437,0,0,1,.1-.017.162.162,0,0,1,.082-.033l.1-.048a.833.833,0,0,0,.08-.032c.05-.033.082-.05.082-.05.05-.032.115-.065.115-.065a.7.7,0,0,0,.1-.082.5.5,0,0,0,.115-.08c.048-.05.145-.132.145-.132l.212-.195,11.85-11.817,1.27-1.243.732-.683.765-.677.39-.325.407-.31.392-.3.407-.287.39-.26.392-.243.2-.115.212-.113.195-.1.2-.1.195-.1.2-.09.2-.082.195-.082.2-.072.195-.075.2-.065.195-.065.178-.048.195-.057.2-.048.195-.042.2-.04.2-.032.195-.033.195-.031.375-.043.39-.038.392-.027.39-.015,1.547-.017h8.985l-7.032,7.015-1.3,1.335-.587.618-.26.292-.245.31-.227.293-.115.147-.1.147-.1.13-.1.147-.08.145-.1.131-.082.145-.065.132-.065.145-.065.132-.065.145-.048.132-.05.13-.048.146-.048.13-.033.13a.593.593,0,0,0-.017.13l-.031.13a.584.584,0,0,0-.017.13.6.6,0,0,0-.017.13v.13a.679.679,0,0,0-.015.132v.13a.421.421,0,0,0,.015.113v.13a.6.6,0,0,1,.017.13c.017.065.034.115.034.115a.671.671,0,0,0,.015.13c.017.065.033.113.033.113l.032.13a1.041,1.041,0,0,0,.05.115c.017.065.032.113.032.113a.713.713,0,0,1,.05.13c.032.048.065.115.065.115l.049.113.065.113.065.115.082.113.065.113.082.1.082.113.1.115.082.1.1.1.1.113.115.1.1.1.115.1.114.1.113.1.115.1.13.082.13.1.13.082.13.1.13.08.147.082.13.082.293.163.293.147.309.145.31.132.308.13.327.13.325.113.342.1.327.1.342.082.325.081.342.082.342.048.342.065.325.05.327.048.325.032.325.033.635.032.6.017,1.107.017H680.168Zm-44.19-8.617.26-.2.26-.2.26-.19.277-.178.262-.178.26-.163.26-.153.277-.147.26-.147.262-.13.276-.123.26-.114.26-.1.277-.1.262-.09.277-.082.26-.072.26-.065.26-.058.277-.05.262-.048.26-.038.26-.034.26-.031.262-.027.26-.017.52-.021.488-.01H655.9l-1.58,1.578-.015,0-.425.425-.325.3-.18.145-.163.137-.178.132-.163.13-.178.123-.178.113-.18.115-.178.1-.1.05-.082.048-.1.049-.1.04-.082.042-.1.038-.1.034-.1.042-.1.033-.1.031-.1.033-.1.023-.082.025-.1.023-.1.027-.1.022-.212.033-.2.032-.2.027-.2.023-.195.015-.212.01-.407.007H629.81Zm-167.8,6.093-.652.618-.308.293-.163.147-.163.13-.161.13-.18.13-.162.115-.163.113-.178.1-.082.048-.1.048-.082.05-.08.032-.1.048-.082.033-.1.048-.082.033-.1.032-.1.033-.082.032-.1.033-.082.032-.1.017-.1.033-.1.017-.18.049-.195.032-.18.033-.2.017-.195.015-.178.016h-.2l-.39.017H444.924l-.293-.017-.147-.016h-.13l-.13-.015-.13-.017-.13-.033-.115-.015s-.065-.016-.113-.033c0,0-.065-.017-.113-.032,0,0-.065-.017-.115-.033,0,0-.048-.017-.113-.033a.5.5,0,0,0-.1-.048,14.794,14.794,0,0,0-.195-.1.466.466,0,0,0-.1-.05l-.1-.065a.61.61,0,0,1-.082-.065.524.524,0,0,1-.1-.048.585.585,0,0,0-.113-.115s-.048-.032-.13-.1a.936.936,0,0,0-.1-.113.883.883,0,0,0-.113-.132.648.648,0,0,1-.065-.08.872.872,0,0,1-.048-.081l-.065-.1a.217.217,0,0,1-.05-.082.5.5,0,0,1-.048-.1s-.032-.05-.048-.082a.5.5,0,0,0-.05-.1l-.032-.1-.033-.1-.031-.1a.278.278,0,0,0-.017-.082.354.354,0,0,1-.017-.1.377.377,0,0,1-.015-.1.341.341,0,0,0-.017-.1v-.2a.359.359,0,0,0,.017-.1.373.373,0,0,1,.015-.1.337.337,0,0,1,.017-.1l.033-.1.032-.1.034-.1a.4.4,0,0,1,.048-.1.489.489,0,0,1,.049-.1.477.477,0,0,1,.05-.1l.065-.1.065-.1a.633.633,0,0,1,.082-.1l.08-.1.082-.113.1-.1.195-.211.228-.229,1.254-1.22,1.122-1.059,1.01-.912.488-.407.455-.373.44-.343.423-.315.407-.287.39-.26.392-.235.178-.114.2-.1.18-.1.178-.1.18-.082.178-.09.18-.072.178-.075.178-.065.163-.065.178-.065.18-.057.163-.048.162-.049.18-.05.162-.042.342-.072.327-.065.325-.048.325-.043.327-.032.325-.033.325-.015.31-.007.308-.01h17.092Zm53.552,0-.637.618-.325.293-.163.147-.163.13-.162.13-.163.13-.178.115-.163.113-.178.1-.082.048-.082.048-.1.05-.082.032-.1.048-.082.033-.1.048-.08.033-.1.032-.082.033-.1.032-.082.033-.1.032-.1.017-.082.033-.1.017-.195.049-.178.032-.2.033-.2.017-.178.015-.195.016h-.2l-.373.017H498.491l-.31-.017-.13-.016H497.9l-.13-.015-.13-.017-.115-.033-.13-.015s-.048-.016-.113-.033c0,0-.065-.017-.115-.032,0,0-.048-.017-.113-.033l-.1-.033s-.067-.032-.115-.048a.477.477,0,0,1-.1-.048.483.483,0,0,1-.1-.048.453.453,0,0,0-.1-.05l-.1-.065a.74.74,0,0,0-.082-.065.259.259,0,0,1-.082-.048s-.048-.049-.13-.115c0,0-.033-.032-.113-.1l-.115-.113s-.032-.05-.1-.132a.5.5,0,0,1-.065-.08.65.65,0,0,0-.065-.081l-.065-.1s-.017-.032-.05-.082a.5.5,0,0,0-.048-.1.241.241,0,0,0-.048-.082l-.033-.1a.487.487,0,0,0-.048-.1l-.033-.1a.366.366,0,0,0-.015-.1.807.807,0,0,1-.033-.082.341.341,0,0,0-.017-.1.337.337,0,0,0-.017-.1v-.392a.345.345,0,0,0,.017-.1.359.359,0,0,0,.017-.1l.033-.1.032-.1.033-.1a.4.4,0,0,1,.048-.1.481.481,0,0,1,.048-.1.407.407,0,0,0,.048-.1l.067-.1.065-.1a.715.715,0,0,0,.08-.1l.082-.1.082-.113.1-.1.212-.211.227-.229,2.475-2.48.57-.53.585-.538.31-.26.325-.26.325-.25.31-.238.325-.235.342-.22.325-.2.327-.195.325-.189.342-.163.327-.162.342-.137.325-.13.325-.115.342-.107.327-.088.325-.082.325-.075.341-.055.327-.048.325-.043.325-.032.327-.033.308-.015.325-.007.31-.01h17.092Zm54.427,0-.652.618-.325.293-.147.147-.178.13-.163.13-.163.13-.162.115-.18.113-.162.1-.1.048-.082.048-.08.05-.1.032-.082.048-.1.033-.08.048-.1.033-.082.032-.1.033-.082.032-.1.033-.1.032-.082.017-.1.033-.1.017-.18.049-.2.032-.178.033-.2.017-.2.015-.195.016h-.178l-.392.017H552.9l-.293-.017-.147-.016h-.13l-.147-.015-.113-.017-.13-.033-.115-.015-.13-.033s-.048-.017-.113-.032l-.1-.033s-.065-.017-.113-.033a.493.493,0,0,0-.1-.048,1.09,1.09,0,0,1-.113-.048.534.534,0,0,1-.1-.048s-.048-.033-.08-.05l-.1-.065-.1-.065s-.031-.017-.08-.048c0,0-.05-.049-.132-.115,0,0-.032-.032-.113-.1a.566.566,0,0,0-.113-.113s-.033-.05-.1-.132a.641.641,0,0,1-.065-.08.517.517,0,0,0-.065-.081.481.481,0,0,0-.048-.1.216.216,0,0,1-.05-.082.511.511,0,0,1-.048-.1s-.032-.05-.048-.082a.409.409,0,0,1-.048-.1l-.033-.1-.033-.1-.032-.1a.2.2,0,0,1-.017-.082.358.358,0,0,1-.017-.1.375.375,0,0,1-.015-.1.362.362,0,0,1-.017-.1v-.2a.342.342,0,0,1,.017-.1.37.37,0,0,1,.015-.1.341.341,0,0,1,.017-.1.346.346,0,0,0,.017-.1l.032-.1a.445.445,0,0,1,.05-.1l.032-.1a.5.5,0,0,0,.05-.1l.065-.1.065-.1.065-.1.065-.1.082-.1.1-.113.082-.1.212-.211.228-.229,2.49-2.48.553-.53.6-.538.31-.26.308-.26.327-.25.325-.238.325-.235.327-.22.325-.2.342-.195.325-.189.327-.163.342-.162.325-.137.325-.13.342-.115.327-.107.325-.088.342-.082.325-.075.327-.055.325-.048.325-.043.327-.032.325-.033.325-.015.31-.007.308-.01H580.1Z" transform="translate(-291.688 -408.751)" fill="#fff"/>
    </g>
    <g id="Dallara" transform="translate(71.215 402.965)">
      <g id="POLYLINE" transform="translate(336.02 9.75)">
        <path id="パス_2" data-name="パス 2" d="M340.65,417.377l-.21-.262-.212-.268-.212-.252-.228-.26-.228-.245-.243-.243-.245-.245-.243-.235-.262-.237-.26-.229-.26-.228-.277-.218-.278-.212-.293-.212-.293-.212-.292-.2-.293-.2-.31-.2-.308-.187-.327-.187-.65-.358-.668-.35-.7-.325-.715-.31-.733-.293-.765-.277-.765-.26-.8-.243-.813-.228-.83-.212-.863-.187-.863-.18-.9-.155-.9-.145-.912-.123-.943-.105-.945-.09-.975-.073-.977-.057-1.01-.032-2.035-.025h-43.8V417.4H315.5l1.367.025,1.27.048.6.042.587.048.553.065.537.065.5.082.5.09.472.088.457.115.44.113.422.122.408.138.2.065.2.082.195.073.18.073.2.082.162.09.18.08.178.09.163.09.163.1.162.09.163.1.147.105.147.1.162.1.13.107.147.113.147.113.13.115.147.122.13.113.132.123.113.13.13.122.13.139.115.13.114.138.13.13.212.285.228.293.212.308,4.867,6.992,2.945,4.177H290.461a.9.9,0,0,0-.122-.01c-.065-.007-.122-.016-.122-.016l-.123-.017a.668.668,0,0,0-.105-.022c-.057-.017-.113-.027-.113-.027l-.107-.033a4.638,4.638,0,0,1-.2-.08c-.04-.017-.09-.04-.09-.04-.04-.025-.088-.048-.088-.048-.042-.027-.082-.048-.082-.048l-.115-.082-.113-.092-.1-.1a1.246,1.246,0,0,1-.088-.105l-.082-.107c-.048-.072-.073-.115-.073-.115a.907.907,0,0,0-.065-.113l-.048-.122-.05-.123a.547.547,0,0,0-.023-.088l-.017-.082c-.008-.042-.017-.09-.017-.09l-.017-.082a.486.486,0,0,0-.008-.088v-.262a.517.517,0,0,0,.008-.088l.017-.082c.008-.042.017-.09.017-.09l.017-.081a.62.62,0,0,0,.023-.082c.033-.088.05-.122.05-.122l.048-.122c.04-.082.065-.122.065-.122.048-.073.073-.115.073-.115.048-.065.082-.105.082-.105.057-.065.088-.1.088-.1l.1-.1a.989.989,0,0,1,.113-.09l.115-.09.082-.048c.048-.025.088-.048.088-.048.05-.025.09-.042.09-.042a.951.951,0,0,1,.1-.04.831.831,0,0,0,.1-.042c.057-.015.107-.023.107-.023l.113-.033a.787.787,0,0,0,.105-.023l.123-.017a244.52,244.52,0,0,0,.243-.017,1.161,1.161,0,0,1,.13-.008h38.68l-4.508-6.485a1.013,1.013,0,0,0-.113-.138c-.048-.067-.1-.138-.1-.138-.065-.058-.13-.123-.13-.123-.065-.065-.13-.122-.13-.122l-.13-.113-.13-.115c-.082-.057-.163-.1-.163-.1a1.244,1.244,0,0,0-.147-.107l-.162-.1-.081-.05-.1-.04-.082-.048-.1-.042-.18-.08-.178-.082-.195-.073-.212-.073-.2-.065-.228-.065-.212-.057-.228-.05-.212-.048-.243-.048-.228-.042-.243-.032-.245-.033-.505-.048-.5-.042-.538-.015-.537-.008H291.234l-1.725.023-.863.042-.853.048-.847.073-.838.082-.83.105-.813.123-.807.138-.788.162-.765.18-.75.2-.732.228-.358.113-.35.122-.35.13-.342.138-.325.138-.333.147-.318.155-.308.163-.31.162-.3.172-.285.178-.283.18-.277.187-.27.2-.252.2-.252.212-.245.22-.228.22-.113.113-.105.115-.107.113-.1.122-.107.122-.1.124-.1.122-.1.121-.1.13-.09.13-.082.132-.088.13-.082.138-.082.138-.073.138-.073.138-.073.138-.073.147-.065.147-.065.145-.057.155-.057.147-.058.155-.048.155-.048.153-.048.163-.042.163-.04.162-.042.163-.032.164-.033.17-.023.172-.025.17-.025.18-.015.178-.017.172-.008.187-.008.178-.008.188v.373l.008.188.008.187.008.178.017.188.015.178.025.173.025.178.023.17.033.172.032.17.042.162.04.174.042.161.048.154.048.163.048.157.058.152.057.157.057.153.065.147.065.147.073.147.073.147.073.14.073.137.082.14.082.137.088.13.09.13.09.13.088.13.1.13.1.123.1.122.107.124.1.12.107.115.113.123.105.113.123.115.113.1.245.222.243.211.26.2.268.195.277.188.277.187.293.178.3.173.3.162.317.164.317.146.327.153.333.14.342.137.342.123.358.13.358.113.358.115.365.1.757.205.765.18.79.162.8.136.815.125.83.1.838.082.845.075.855.049.855.04,1.725.032,66.587.01Z" transform="translate(-272.826 -408.815)" fill="#fff"/>
      </g>
      <g id="POLYLINE-2" data-name="POLYLINE" transform="translate(210.113 9.75)">
        <path id="パス_3" data-name="パス 3" d="M241.082,408.815h-43.8V417.4h42.677l1.367.017,1.27.057.6.042.578.048.553.065.537.065.522.082.488.082.48.1.455.115.44.113.423.122.407.138.2.065.188.082.195.073.18.073.187.082.178.09.172.08.17.09.163.09.172.1.153.09.163.1.155.105.147.1.155.1.145.107.138.113.138.113.138.115.138.122.132.113.13.123.13.13.122.122.122.13.123.139.113.138.122.13.228.285.212.293.22.308,4.858,6.992,2.945,4.177h-45.9a.976.976,0,0,0-.13-.01c-.057-.007-.122-.016-.122-.016-.057-.007-.113-.017-.113-.017a.956.956,0,0,0-.115-.022.813.813,0,0,0-.105-.027l-.107-.033a4.775,4.775,0,0,1-.2-.08.619.619,0,0,1-.09-.04l-.088-.048c-.042-.027-.082-.048-.082-.048a1.221,1.221,0,0,0-.122-.082c-.073-.065-.107-.092-.107-.092a.906.906,0,0,1-.1-.1c-.065-.072-.1-.105-.1-.105a.632.632,0,0,0-.082-.107.656.656,0,0,1-.065-.115c-.048-.082-.065-.113-.065-.113-.042-.082-.057-.122-.057-.122a.775.775,0,0,1-.042-.123c-.015-.048-.023-.088-.023-.088a.555.555,0,0,1-.025-.082c-.008-.042-.017-.09-.017-.09a.458.458,0,0,1-.008-.082.575.575,0,0,1-.008-.088.673.673,0,0,1-.007-.09v-.082a.64.64,0,0,1,.007-.09.611.611,0,0,1,.008-.088.454.454,0,0,1,.008-.082c.008-.042.017-.09.017-.09a.567.567,0,0,1,.025-.081.7.7,0,0,1,.023-.082c.025-.08.042-.122.042-.122.04-.082.057-.122.057-.122.04-.082.065-.122.065-.122.04-.073.065-.115.065-.115a.961.961,0,0,0,.082-.105l.1-.1.1-.1c.073-.065.107-.09.107-.09.08-.057.122-.09.122-.09l.082-.048c.04-.025.088-.048.088-.048.042-.017.09-.042.09-.042a.952.952,0,0,1,.1-.04l.1-.033c.057-.015.107-.032.107-.032.057-.017.105-.033.105-.033.057-.008.115-.023.115-.023l.113-.017a1.074,1.074,0,0,1,.122-.008,1.161,1.161,0,0,1,.13-.008,1.125,1.125,0,0,0,.122-.008h38.69l-4.517-6.493c-.048-.065-.1-.13-.1-.13a1.357,1.357,0,0,0-.107-.138l-.122-.123a1.445,1.445,0,0,0-.122-.122c-.065-.057-.138-.113-.138-.113-.073-.057-.14-.115-.14-.115-.073-.057-.153-.1-.153-.1-.073-.057-.155-.107-.155-.107l-.163-.1-.082-.05-.088-.04-.09-.048-.09-.042-.178-.08-.187-.082-.2-.073-.2-.073-.2-.065-.212-.065-.22-.057-.218-.05-.228-.048-.237-.048-.235-.042-.245-.032-.243-.033-.5-.048-.513-.042-.528-.015-.537-.008H215.69l-1.733.032-.855.033-.853.048-.847.073-.847.09-.822.1-.822.123-.8.138-.788.162-.773.18-.75.2-.732.22-.358.113-.35.13-.342.122-.342.138-.333.138-.325.147-.318.155-.317.163-.3.162-.3.172-.292.178-.277.18-.277.187-.27.2-.26.195-.243.212-.245.22-.228.22-.113.113-.113.115-.107.113-.105.122-.1.122-.105.124-.1.122-.1.13-.09.122-.09.13-.09.132-.08.138-.082.13-.082.138-.082.138-.073.138-.073.147-.065.138-.065.147-.065.145-.057.155-.065.147-.05.155-.057.155-.048.153-.04.163-.05.163-.032.162-.042.163-.032.164-.033.17-.023.172-.025.17-.025.18-.015.178-.017.18-.008.179-.008.178-.008.188v.373l.008.188.008.187.008.187.017.18.015.178.025.18.025.172.023.17.033.172.032.17.042.162.032.174.05.161.04.163.048.154.057.157.058.152.057.157.057.153.065.147.065.147.073.147.065.147.082.14.073.137.082.14.082.137.08.13.09.14.09.13.1.12.09.13.107.123.1.122.107.124.1.12.115.123.1.115.113.113.115.115.122.1.237.222.252.211.26.2.262.195.277.188.283.187.293.178.293.173.31.162.308.164.325.153.327.147.333.14.342.137.342.13.35.123.358.113.367.115.365.1.75.205.772.18.79.162.8.136.813.125.83.1.838.082.847.075.853.055.863.033,1.725.032,66.587.01L265.1,417.377l-.2-.27-.22-.26-.212-.252-.228-.26-.228-.245-.243-.252-.237-.237-.252-.235-.252-.237-.262-.229-.268-.228-.277-.218-.277-.212-.285-.212-.293-.212-.292-.2-.3-.2-.31-.2-.309-.187-.318-.187-.65-.358-.675-.35-.7-.325-.717-.31-.733-.293-.757-.277-.772-.26-.8-.243-.813-.228-.83-.212-.855-.187-.87-.18-.88-.155-.9-.145-.92-.123-.937-.105-.952-.09-.968-.073-.985-.057-1-.032Z" transform="translate(-197.282 -408.815)" fill="#fff"/>
      </g>
      <g id="POLYLINE-3" data-name="POLYLINE" transform="translate(84.694 9.75)">
        <path id="パス_4" data-name="パス 4" d="M165.831,408.815h-43.8V417.4H164.71l1.367.017,1.27.057.6.042.578.048.553.065.537.065.513.082.5.082.482.1.455.115.44.113.423.122.407.138.2.065.195.082.187.073.188.073.178.082.18.09.178.08.17.09.163.09.172.1.153.09.163.1.155.105.147.1.147.1.147.107.145.113.138.113.138.115.132.122.138.113.13.123.122.13.13.122.122.13.123.139.113.138.113.13.228.285.22.293.22.308,4.858,6.992,2.945,4.177H139.658a.817.817,0,0,0-.122-.01c-.057-.007-.122-.016-.122-.016-.057-.007-.113-.017-.113-.017a.96.96,0,0,0-.115-.022c-.057-.017-.105-.027-.105-.027-.057-.016-.107-.033-.107-.033a.8.8,0,0,1-.1-.038.81.81,0,0,1-.1-.042.611.611,0,0,1-.09-.04l-.088-.048c-.042-.027-.082-.048-.082-.048a1.233,1.233,0,0,0-.122-.082c-.073-.065-.107-.092-.107-.092-.073-.065-.1-.1-.1-.1-.058-.072-.09-.105-.09-.105a.637.637,0,0,0-.082-.107c-.048-.072-.073-.115-.073-.115l-.057-.113c-.04-.082-.057-.122-.057-.122a.767.767,0,0,1-.042-.123c-.015-.048-.023-.088-.023-.088a.556.556,0,0,1-.025-.082c-.008-.042-.017-.09-.017-.09a.456.456,0,0,1-.008-.082.588.588,0,0,1-.008-.088.666.666,0,0,1-.007-.09v-.082a.633.633,0,0,1,.007-.09.624.624,0,0,1,.008-.088.452.452,0,0,1,.008-.082c.008-.042.017-.09.017-.09a.569.569,0,0,1,.025-.081.7.7,0,0,1,.023-.082c.025-.08.042-.122.042-.122a.8.8,0,0,1,.057-.122c.04-.082.057-.122.057-.122.048-.073.073-.115.073-.115a.964.964,0,0,0,.082-.105,1.052,1.052,0,0,0,.09-.1,1.391,1.391,0,0,1,.1-.1.641.641,0,0,1,.107-.09c.072-.057.122-.09.122-.09l.082-.048c.04-.025.088-.048.088-.048.042-.017.09-.042.09-.042a.951.951,0,0,1,.1-.04l.1-.033.107-.032c.048-.017.105-.033.105-.033.057-.008.115-.023.115-.023l.113-.017a232.155,232.155,0,0,0,.243-.017,1.168,1.168,0,0,0,.13-.008h38.69l-4.517-6.493c-.048-.065-.1-.13-.1-.13a1.342,1.342,0,0,0-.107-.138,1.591,1.591,0,0,1-.122-.123c-.065-.065-.13-.122-.13-.122l-.13-.113-.147-.115c-.073-.057-.147-.1-.147-.1-.073-.057-.155-.107-.155-.107l-.161-.1-.09-.05-.082-.04-.09-.048-.088-.042-.18-.08-.2-.082-.195-.073-.2-.073-.212-.065-.212-.065-.212-.057-.228-.05-.227-.048-.228-.048-.237-.042-.243-.032-.245-.033-.5-.048-.512-.042-.53-.015-.537-.008H140.439l-1.733.032-.855.033-.862.048-.847.073-.838.09-.822.1-.822.123-.8.138-.788.162-.773.18-.748.2-.733.22-.358.113-.35.13-.342.122-.342.138-.333.138-.325.147-.318.155-.317.163-.3.162-.3.172-.292.178-.285.18-.268.187-.27.2-.26.195-.243.212-.245.22-.227.22-.115.113-.113.115-.107.113-.1.122-.107.122-.1.124-.1.122-.1.13-.09.122-.09.13-.09.132-.08.138-.09.13-.073.138-.082.138-.073.138-.073.147-.065.138-.065.147-.065.145-.065.155-.057.147-.048.155-.058.155-.048.153-.048.163-.042.163-.04.162-.033.163-.032.164-.033.17-.032.172-.017.17-.025.18-.015.178-.017.18-.017.179-.008.178v.75l.008.187.017.187.017.18.015.178.025.18.017.172.032.17.033.172.032.17.033.162.04.174.05.161.04.163.048.154.058.157.048.152.057.157.065.153.065.147.065.147.065.147.073.147.073.14.082.137.082.14.082.137.08.13.09.14.09.13.1.12.09.13.1.123.105.122.1.124.1.12.115.123.1.115.115.113.113.115.113.1.245.222.252.211.252.2.27.195.277.188.283.187.293.178.293.173.31.162.308.164.325.153.327.147.333.14.333.137.35.13.35.123.358.113.367.115.365.1.75.205.772.18.782.162.807.136.813.125.83.1.838.082.847.075.853.055.863.033,1.725.032,66.587.01-17.178-24.627-.212-.27-.212-.26-.22-.252-.22-.26-.237-.245-.235-.252-.245-.237-.243-.235-.252-.237-.27-.229-.26-.228-.277-.218-.277-.212-.285-.212-.293-.212-.292-.2-.3-.2-.31-.2-.308-.187-.318-.187-.658-.358-.667-.35-.7-.325-.717-.31-.732-.293-.758-.277-.78-.26-.79-.243-.813-.228-.838-.212-.847-.187-.87-.18-.888-.155-.9-.145-.918-.123-.937-.105-.952-.09-.96-.073-.985-.057-1-.032Z" transform="translate(-122.031 -408.815)" fill="#fff"/>
      </g>
      <g id="POLYLINE-4" data-name="POLYLINE" transform="translate(189.312)">
        <rect id="長方形_2" data-name="長方形 2" width="12.208" height="42.954" fill="#fff"/>
      </g>
      <g id="POLYLINE-5" data-name="POLYLINE" transform="translate(173.393)">
        <rect id="長方形_3" data-name="長方形 3" width="12.216" height="42.954" fill="#fff"/>
      </g>
      <g id="POLYLINE-6" data-name="POLYLINE" transform="translate(298.772 9.741)">
        <path id="パス_5" data-name="パス 5" d="M264.767,408.81l-.708.008-.692.025-.66.032-.633.048-.62.058-.593.065-.578.08-.545.09-.537.107-.505.113-.488.122-.472.13-.455.138-.432.147-.407.155-.4.163-.373.17-.367.18-.342.187-.325.186-.31.188-.147.105-.147.1-.147.1-.13.107-.138.1-.13.107-.13.105-.122.107-.115.105-.122.107-.113.105-.107.113-.105.107-.107.105-.1.115-.1.105-.09.115-.088.105-.09.113-.082.115-.162.22-.147.218-.138.228-.13.22-.115.22-.1.212-.1.22-.09.212-.08.212-.073.2-.065.2-.058.2-.057.187-.04.187-.042.188-.032.178-.025.163-.023.17-.025.155-.008.147-.017.138-.008.13v.122l-.007.212.007.18v.122a.84.84,0,0,0,.017.113v23.725h14.29V418.885a.891.891,0,0,0,.008-.113c.008-.05.017-.107.017-.107l.017-.1a.863.863,0,0,1,.023-.1.481.481,0,0,1,.025-.09c.017-.048.033-.09.033-.09l.048-.1a.756.756,0,0,0,.048-.1c.05-.065.065-.081.065-.081a.853.853,0,0,0,.073-.1c.082-.065.1-.082.1-.082l.115-.09c.073-.04.113-.057.113-.057.073-.04.113-.056.113-.056l.082-.033c.05-.015.09-.032.09-.032a.8.8,0,0,1,.09-.025.57.57,0,0,1,.1-.023,1.34,1.34,0,0,1,.147-.033l.107-.017.105-.015.113-.008.107-.008.122-.008.115-.008h17.277v-8.61C284.022,408.818,264.767,408.81,264.767,408.81Z" transform="translate(-250.477 -408.81)" fill="#fff"/>
      </g>
      <g id="POLYLINE-7" data-name="POLYLINE" transform="translate(19.442 21.965)">
        <path id="パス_6" data-name="パス 6" d="M82.88,420.481v.115l.008.105.008.115.008.105.007.107.017.113.017.1.025.107.023.1.025.105.023.107.033.1.033.107.032.1.04.1.042.1.04.1.042.09.048.1.048.09.05.09.057.088.057.09.057.09.057.082.058.088.13.163.138.155c.065.073.138.147.138.147.073.074.155.147.155.147.072.065.153.13.153.13l.163.13L84.7,424l.09.057.08.057.09.057.09.05.088.048.09.048.1.05.1.048.09.04.1.042.1.032.1.033.1.032.107.033.1.032.107.025.105.025.107.015.1.017.107.017.105.017.115.008.1.008h38.357v-8.643l-38.129.032h-.228l-.1.008-.115.008-.105.016-.107.017-.1.017-.107.015-.105.025-.107.025-.1.031-.107.025-.1.032-.1.042-.1.031-.1.042-.09.04-.1.048-.1.042-.09.048-.088.057-.09.05-.09.057-.08.057-.09.057-.082.065c-.082.057-.163.121-.163.121l-.153.139c-.082.073-.155.147-.155.147-.073.073-.138.147-.138.147a2.076,2.076,0,0,0-.138.155l-.13.163-.058.08-.057.09-.057.09-.057.082-.057.088-.05.1-.048.09-.048.088-.042.1-.04.1-.042.1-.04.1-.032.1-.033.1-.033.1-.023.107-.025.1-.023.1-.025.107-.017.105-.017.1-.007.115-.008.105-.008.115-.008.105Z" transform="translate(-82.88 -416.144)" fill="#fff"/>
      </g>
      <g id="POLYLINE-8" data-name="POLYLINE" transform="translate(0 0.008)">
        <path id="パス_7" data-name="パス 7" d="M136.5,437.095H92.9l-.2-.01-.2-.006-.2-.01-.2-.016-.2-.023L91.7,437l-.2-.032-.2-.033-.187-.042-.2-.049-.187-.049-.187-.055-.187-.058-.179-.065-.179-.072-.179-.075-.179-.071-.179-.082-.171-.091-.171-.09-.163-.089-.163-.1-.163-.1-.163-.106-.155-.106-.155-.114-.154-.114-.146-.122-.147-.122-.138-.13-.138-.122-.138-.138-.13-.13-.13-.138-.13-.146-.122-.147-.114-.146-.122-.147-.106-.155-.114-.154-.106-.163-.1-.163-.1-.163-.1-.163-.081-.171-.089-.171-.081-.179-.073-.171-.081-.179-.065-.179-.065-.187-.057-.179-.057-.187-.049-.187-.049-.2-.041-.187-.041-.2-.033-.2-.024-.2-.024-.2-.016-.2-.016-.2-.008-.2v-.407l.008-.2.016-.2.016-.2.024-.2.024-.2.033-.2.041-.2.041-.187.049-.187.049-.2.057-.187.057-.179.065-.187.065-.179.081-.179.073-.171.081-.179.089-.171.081-.163.1-.171.1-.163.1-.163.106-.155.114-.163.106-.155.122-.146.114-.147.122-.147.13-.138.13-.138.13-.138.138-.13.138-.13.138-.13.147-.122.146-.114.154-.122.155-.106.155-.114.163-.1.163-.106.163-.1.163-.089.171-.09.171-.089.179-.073.179-.082.179-.073.179-.065.179-.065.187-.065.187-.049.187-.057.2-.041.187-.041.2-.041.2-.032.2-.025.2-.024.2-.016.2-.016.2-.008h40.4v-8.586L89.623,412.7l-.863.008-.863.033-.863.065-.854.081-.846.106-.838.138-.415.081-.415.081-.407.1-.407.1-.407.106-.4.114-.391.122-.4.13-.382.147-.382.146-.383.146-.374.171-.366.171-.358.179-.358.187-.35.2-.35.2-.342.22-.334.22-.326.236-.317.244-.309.252-.309.26-.3.277-.285.277-.285.293-.277.3-.268.309-.252.326-.252.326-.244.35-.228.35-.22.366-.212.374-.212.383-.187.4-.187.407-.171.423-.163.431-.155.439-.138.456-.13.464-.114.48-.106.488-.1.5-.081.513-.073.529-.057.537-.049.553-.033.562-.016.578-.008.594.008.6.016.586.033.57.049.562.057.545.073.537.081.521.1.5.106.5.114.48.13.472.147.456.146.447.163.441.171.423.187.413.2.4.2.381.212.384.22.365.236.358.236.342.252.335.26.326.269.309.268.3.285.293.293.286.3.267.3.27.317.251.317.244.325.228.334.228.342.211.342.212.358.2.358.188.358.179.366.169.374.163.382.156.382.146.383.137.391.13.4.13.4.114.407.107.407.1.407.1.415.081.415.082.838.137.846.114.855.082.855.065.863.033.863.016,59.092.033V402.97H136.5Z" transform="translate(-71.215 -402.97)" fill="#fff"/>
      </g>
    </g>
  </g>
</svg>
