<?xml version="1.0" encoding="utf-8"?>
<!-- Generator: Adobe Illustrator 16.0.0, SVG Export Plug-In . SVG Version: 6.00 Build 0)  -->
<!DOCTYPE svg PUBLIC "-//W3C//DTD SVG 1.1//EN" "http://www.w3.org/Graphics/SVG/1.1/DTD/svg11.dtd">
<svg version="1.1" id="レイヤー_1" xmlns="http://www.w3.org/2000/svg" xmlns:xlink="http://www.w3.org/1999/xlink" x="0px"
	 y="0px" width="360.057px" height="166.281px" viewBox="103.465 185.443 360.057 166.281"
	 enable-background="new 103.465 185.443 360.057 166.281" xml:space="preserve">
<g id="Layer_1">
</g>
<g id="Layer_6">
	<path fill="#010101" d="M463.465,351.724h-360V185.443h360.057v166.281H463.465z M106.469,348.662h353.934V188.504H106.469V348.662
		z"/>
</g>
<g id="Layer_2">
	<g>
		<path fill="#010101" d="M253.701,235.673h-7.144v-2.381h17.008v2.381h-7.086v24.321h-2.778V235.673z"/>
		<path fill="#010101" d="M278.419,260.334c-1.927,0-3.742-0.34-5.386-1.021c-1.644-0.68-3.118-1.644-4.365-2.892
			c-1.247-1.247-2.211-2.664-2.948-4.309c-0.737-1.644-1.077-3.458-1.077-5.386s0.34-3.685,1.077-5.386
			c0.737-1.644,1.701-3.118,2.948-4.365s2.721-2.211,4.365-2.948c1.644-0.736,3.458-1.077,5.329-1.077
			c1.984,0,3.799,0.341,5.5,1.021c1.701,0.681,3.119,1.645,4.365,2.892c1.248,1.247,2.211,2.664,2.892,4.365
			c0.681,1.645,1.021,3.458,1.021,5.442s-0.34,3.799-1.077,5.442c-0.681,1.645-1.7,3.118-2.892,4.365
			c-1.247,1.248-2.664,2.212-4.365,2.892C282.218,259.994,280.403,260.334,278.419,260.334z M278.419,257.953
			c1.645,0,3.175-0.283,4.536-0.851c1.361-0.566,2.495-1.36,3.458-2.381s1.7-2.211,2.211-3.572c0.511-1.36,0.794-2.834,0.794-4.365
			c0-1.644-0.283-3.118-0.794-4.479s-1.247-2.607-2.211-3.628s-2.098-1.814-3.458-2.382c-1.361-0.566-2.834-0.85-4.479-0.85
			s-3.118,0.283-4.479,0.906c-1.36,0.624-2.495,1.418-3.458,2.495c-0.964,1.021-1.701,2.268-2.268,3.628
			c-0.567,1.361-0.793,2.835-0.793,4.309c0,1.531,0.283,3.005,0.793,4.365c0.567,1.361,1.304,2.552,2.268,3.572
			c0.963,1.021,2.098,1.814,3.458,2.438C275.301,257.67,276.775,257.953,278.419,257.953z"/>
		<path fill="#010101" d="M295.087,233.292h2.778v11.679l11.679-11.679h3.685l-13.096,13.096l14.003,13.606h-3.969l-12.302-11.963
			v11.963h-2.778V233.292z"/>
		<path fill="#010101" d="M323.547,248.372l-9.468-15.08h3.288l7.54,12.188l7.483-12.188h3.231l-9.354,15.08v11.622h-2.777v-11.622
			H323.547z"/>
		<path fill="#010101" d="M350.589,260.334c-1.927,0-3.741-0.34-5.386-1.021c-1.644-0.68-3.118-1.644-4.365-2.892
			c-1.247-1.247-2.211-2.664-2.948-4.309c-0.736-1.644-1.077-3.458-1.077-5.386s0.341-3.685,1.077-5.386
			c0.737-1.644,1.701-3.118,2.948-4.365s2.722-2.211,4.365-2.948c1.645-0.736,3.459-1.077,5.329-1.077
			c1.984,0,3.799,0.341,5.5,1.021c1.7,0.681,3.118,1.645,4.365,2.892s2.211,2.664,2.892,4.365c0.68,1.645,1.02,3.458,1.02,5.442
			s-0.34,3.799-1.077,5.442c-0.68,1.645-1.7,3.118-2.891,4.365c-1.19,1.248-2.665,2.212-4.365,2.892
			C354.331,259.994,352.517,260.334,350.589,260.334z M350.532,257.953c1.645,0,3.175-0.283,4.536-0.851
			c1.36-0.566,2.494-1.36,3.458-2.381s1.701-2.211,2.211-3.572c0.511-1.36,0.794-2.834,0.794-4.365c0-1.644-0.283-3.118-0.794-4.479
			c-0.51-1.36-1.247-2.607-2.211-3.628s-2.098-1.814-3.458-2.382c-1.361-0.566-2.835-0.85-4.479-0.85
			c-1.644,0-3.118,0.283-4.479,0.906c-1.36,0.624-2.494,1.418-3.458,2.495c-0.964,1.021-1.701,2.268-2.268,3.628
			c-0.567,1.361-0.794,2.835-0.794,4.309c0,1.531,0.283,3.005,0.794,4.365c0.566,1.361,1.304,2.552,2.268,3.572
			s2.098,1.814,3.458,2.438C347.414,257.67,348.889,257.953,350.532,257.953z"/>
		<path fill="#010101" d="M255.969,304.158c-1.701,0-3.345-0.341-4.875-0.964c-1.531-0.681-2.835-1.701-3.969-3.062l1.984-1.701
			c0.794,1.021,1.757,1.871,2.948,2.438c1.19,0.624,2.494,0.907,3.912,0.907c0.851,0,1.644-0.113,2.324-0.396
			c0.681-0.283,1.304-0.681,1.758-1.134c0.51-0.454,0.85-1.021,1.134-1.701c0.283-0.623,0.397-1.304,0.397-2.098
			c0-0.68-0.114-1.247-0.34-1.757c-0.227-0.511-0.567-0.964-0.964-1.305c-0.397-0.396-0.907-0.736-1.417-1.021
			c-0.567-0.283-1.134-0.566-1.758-0.793l-3.118-1.19c-0.737-0.284-1.417-0.624-2.098-1.021c-0.68-0.397-1.247-0.851-1.757-1.418
			c-0.51-0.566-0.907-1.19-1.247-1.928c-0.284-0.736-0.454-1.587-0.454-2.551s0.227-1.871,0.624-2.722
			c0.397-0.85,0.964-1.53,1.644-2.154c0.68-0.623,1.531-1.077,2.438-1.417c0.963-0.34,1.984-0.51,3.061-0.51
			c1.587,0,2.892,0.227,3.969,0.68c1.077,0.454,2.041,1.077,3.005,1.871l-1.701,1.928c-0.737-0.681-1.474-1.19-2.324-1.588
			c-0.851-0.396-1.814-0.566-2.948-0.566c-0.737,0-1.36,0.113-1.984,0.34c-0.624,0.227-1.134,0.511-1.587,0.907
			c-0.454,0.396-0.794,0.851-1.077,1.417c-0.284,0.511-0.397,1.134-0.397,1.758c0,0.566,0.113,1.134,0.34,1.587
			c0.227,0.454,0.51,0.851,0.85,1.191c0.34,0.34,0.794,0.623,1.304,0.906c0.51,0.284,1.02,0.511,1.587,0.737l3.061,1.19
			c0.794,0.284,1.531,0.681,2.268,1.077c0.737,0.397,1.36,0.907,1.927,1.475c0.567,0.566,1.021,1.247,1.361,2.041
			c0.34,0.793,0.51,1.7,0.51,2.777s-0.227,2.098-0.624,3.005c-0.397,0.907-1.021,1.758-1.814,2.438
			c-0.793,0.681-1.644,1.248-2.721,1.645C258.236,303.988,257.159,304.158,255.969,304.158z"/>
		<path fill="#010101" d="M277.059,304.158c-1.077,0-2.154-0.114-3.118-0.397s-1.928-0.623-2.721-1.134
			c-0.794-0.51-1.531-1.077-2.154-1.758c-0.624-0.68-1.077-1.474-1.361-2.324c-0.227-0.623-0.34-1.304-0.454-2.098
			c-0.057-0.736-0.113-1.53-0.113-2.324v-17.008h2.778v17.178c0,0.511,0,1.077,0.057,1.645c0.057,0.566,0.113,1.077,0.283,1.53
			c0.227,0.624,0.51,1.19,0.964,1.758c0.454,0.51,0.964,0.964,1.531,1.36c0.567,0.397,1.247,0.681,1.984,0.907
			c0.737,0.227,1.53,0.34,2.324,0.34c0.851,0,1.644-0.113,2.381-0.34c0.737-0.227,1.417-0.51,2.041-0.907
			c0.567-0.396,1.134-0.851,1.531-1.36c0.397-0.511,0.737-1.077,0.907-1.758c0.113-0.51,0.226-1.021,0.226-1.53
			c0.058-0.567,0.058-1.077,0.058-1.588v-17.178h2.778v17.008c0,0.794-0.057,1.531-0.113,2.268
			c-0.058,0.737-0.171,1.418-0.397,2.041c-0.284,0.851-0.737,1.645-1.36,2.324c-0.624,0.681-1.304,1.305-2.155,1.814
			c-0.85,0.511-1.757,0.907-2.721,1.134S278.136,304.158,277.059,304.158z"/>
		<path fill="#010101" d="M290.608,277.172h8.447c0.907,0,1.7,0.057,2.551,0.227c0.794,0.17,1.531,0.397,2.154,0.681
			c1.19,0.623,2.211,1.53,3.005,2.778c0.794,1.247,1.247,2.721,1.247,4.479c0,1.021-0.113,1.984-0.396,2.834
			c-0.283,0.851-0.624,1.645-1.077,2.325c-0.454,0.68-0.964,1.247-1.531,1.7c-0.566,0.454-1.19,0.851-1.87,1.077
			c-0.567,0.17-1.191,0.341-1.814,0.397c-0.681,0.057-1.475,0.113-2.381,0.113h-5.499v10.091h-2.778v-26.702H290.608z
			 M298.942,291.345c0.736,0,1.304,0,1.7-0.057c0.454-0.057,0.907-0.113,1.361-0.283c0.453-0.17,0.85-0.396,1.247-0.737
			c0.396-0.34,0.736-0.736,1.021-1.247c0.283-0.51,0.51-1.021,0.68-1.644c0.17-0.624,0.284-1.305,0.284-1.984
			c0-1.304-0.284-2.381-0.794-3.231c-0.511-0.851-1.134-1.475-1.928-1.871c-0.851-0.51-2.041-0.737-3.515-0.737h-5.669v11.792
			H298.942L298.942,291.345z"/>
		<path fill="#010101" d="M310.621,277.172h16.44v2.381h-13.606v9.411h12.983v2.381h-12.983v10.092h13.606v2.381h-16.44V277.172z"/>
		<path fill="#010101" d="M329.896,277.172h9.524c0.851,0,1.701,0.057,2.494,0.17c0.794,0.113,1.531,0.397,2.211,0.737
			c1.248,0.623,2.325,1.587,3.118,2.835c0.794,1.247,1.19,2.721,1.19,4.422c0,1.19-0.17,2.324-0.566,3.288s-0.851,1.814-1.474,2.551
			c-0.567,0.681-1.248,1.247-2.041,1.645c-0.737,0.396-1.531,0.623-2.269,0.68c1.135,1.758,2.269,3.459,3.346,5.159
			c1.077,1.701,2.211,3.402,3.288,5.159h-3.345c-1.077-1.7-2.154-3.345-3.175-5.046c-1.077-1.7-2.154-3.401-3.175-5.102h-6.293
			v10.091h-2.778v-26.589H329.896z M339.364,291.345c0.566,0,1.077,0,1.53-0.057c0.454-0.057,1.021-0.113,1.531-0.283
			c0.453-0.17,0.907-0.396,1.304-0.737c0.396-0.34,0.737-0.793,1.021-1.304c0.283-0.51,0.51-1.077,0.681-1.7
			c0.17-0.624,0.227-1.248,0.227-1.928c0-1.247-0.227-2.324-0.737-3.175c-0.453-0.851-1.134-1.531-1.928-1.984
			c-0.51-0.283-1.021-0.453-1.644-0.567c-0.624-0.113-1.247-0.17-1.928-0.17h-6.747v11.792h6.69V291.345z"/>
		<path fill="#010101" d="M363.629,304.215c-1.984,0-3.855-0.341-5.556-1.077c-1.701-0.737-3.118-1.701-4.366-2.948
			c-1.247-1.247-2.154-2.722-2.891-4.365c-0.681-1.645-1.021-3.459-1.021-5.329c0-1.871,0.34-3.629,1.077-5.329
			c0.68-1.645,1.7-3.118,2.948-4.366c1.247-1.247,2.721-2.211,4.365-2.947c1.644-0.737,3.515-1.077,5.442-1.077
			s3.685,0.34,5.272,1.021c1.587,0.68,3.062,1.587,4.309,2.777l-1.701,1.928c-1.021-0.907-2.211-1.701-3.515-2.381
			c-1.304-0.624-2.778-0.964-4.422-0.964c-1.645,0-3.118,0.283-4.479,0.907c-1.361,0.623-2.495,1.417-3.459,2.494
			c-0.964,1.021-1.7,2.268-2.268,3.628c-0.566,1.361-0.794,2.835-0.794,4.31c0,1.53,0.284,3.004,0.794,4.365
			c0.567,1.36,1.304,2.551,2.268,3.571s2.154,1.871,3.516,2.438c1.36,0.624,2.834,0.907,4.422,0.907
			c1.644,0,3.118-0.283,4.422-0.907c1.304-0.623,2.438-1.36,3.458-2.211l1.588,1.871c-1.247,1.19-2.722,2.041-4.309,2.722
			C367.257,303.931,365.5,304.215,363.629,304.215z"/>
		<path fill="#010101" d="M385.966,275.868l11.905,27.949h-3.062l-3.062-7.2h-11.735l-3.062,7.2h-3.062L385.966,275.868z
			 M390.784,294.293l-4.875-11.679l-4.819,11.679H390.784z"/>
		<path fill="#010101" d="M399.686,277.172h9.524c0.851,0,1.7,0.057,2.494,0.17s1.531,0.397,2.211,0.737
			c1.248,0.623,2.325,1.587,3.118,2.835c0.794,1.247,1.19,2.721,1.19,4.422c0,1.19-0.17,2.324-0.566,3.288
			c-0.397,0.964-0.851,1.814-1.474,2.551c-0.567,0.681-1.248,1.247-2.041,1.645c-0.737,0.396-1.531,0.623-2.269,0.68
			c1.135,1.758,2.269,3.459,3.346,5.159c1.077,1.701,2.211,3.402,3.288,5.159h-3.345c-1.077-1.7-2.154-3.345-3.175-5.046
			c-1.077-1.7-2.154-3.401-3.175-5.102h-6.293v10.091h-2.835V277.172z M409.097,291.345c0.566,0,1.077,0,1.53-0.057
			c0.454-0.057,1.021-0.113,1.531-0.283c0.453-0.17,0.907-0.396,1.304-0.737c0.396-0.34,0.737-0.793,1.021-1.304
			c0.283-0.51,0.51-1.077,0.68-1.7c0.171-0.624,0.228-1.248,0.228-1.928c0-1.247-0.228-2.324-0.737-3.175
			c-0.453-0.851-1.134-1.531-1.928-1.984c-0.51-0.283-1.021-0.453-1.644-0.567c-0.624-0.113-1.248-0.17-1.928-0.17h-6.747v11.792
			h6.69V291.345z"/>
		<path fill="#010101" d="M428.146,304.158c-1.701,0-3.345-0.341-4.876-0.964c-1.53-0.681-2.834-1.701-3.969-3.062l1.984-1.701
			c0.794,1.021,1.758,1.871,2.948,2.438c1.19,0.567,2.495,0.907,3.912,0.907c0.851,0,1.644-0.113,2.324-0.396
			s1.304-0.681,1.758-1.134c0.453-0.454,0.85-1.021,1.134-1.701c0.283-0.623,0.396-1.304,0.396-2.098c0-0.68-0.113-1.247-0.34-1.757
			c-0.227-0.511-0.567-0.964-0.964-1.305c-0.397-0.396-0.907-0.736-1.417-1.021c-0.567-0.283-1.135-0.566-1.758-0.793l-3.118-1.19
			c-0.737-0.284-1.417-0.624-2.098-1.021c-0.681-0.397-1.247-0.851-1.758-1.418c-0.51-0.566-0.907-1.19-1.247-1.928
			c-0.283-0.736-0.453-1.587-0.453-2.551s0.227-1.871,0.623-2.722c0.397-0.85,0.964-1.53,1.645-2.154
			c0.68-0.623,1.53-1.077,2.438-1.417c0.964-0.34,1.984-0.51,3.062-0.51c1.588,0,2.892,0.227,3.969,0.68
			c1.077,0.454,2.041,1.077,3.005,1.871l-1.701,1.928c-0.737-0.681-1.474-1.19-2.324-1.588c-0.851-0.34-1.814-0.566-2.948-0.566
			c-0.737,0-1.36,0.113-1.984,0.34c-0.566,0.227-1.134,0.511-1.587,0.907c-0.454,0.396-0.794,0.851-1.077,1.417
			c-0.284,0.511-0.397,1.134-0.397,1.758c0,0.566,0.113,1.134,0.341,1.587c0.227,0.454,0.51,0.851,0.85,1.191
			c0.341,0.34,0.794,0.623,1.305,0.906c0.51,0.284,1.021,0.511,1.587,0.737l3.062,1.19c0.794,0.284,1.53,0.681,2.268,1.077
			c0.737,0.397,1.36,0.907,1.928,1.475c0.567,0.566,1.021,1.247,1.36,2.041c0.341,0.793,0.511,1.7,0.511,2.777
			s-0.227,2.098-0.624,3.005c-0.396,0.907-1.021,1.758-1.814,2.438c-0.793,0.681-1.644,1.248-2.721,1.645
			C430.413,303.988,429.336,304.158,428.146,304.158z"/>
	</g>
	<path fill="#010101" d="M104.996,186.974v163.219h115.54V186.974H104.996z M194.4,292.026l-31.918,31.918l-31.521-31.464
		l2.154-2.155l29.31,29.311l28.914-28.913v-26.079l-28.914,28.914l-31.918-31.919v-34.695l30.387,30.387v-40.422h-28.346v-3.062
		h60.832v3.062h-29.424v40.422l27.836-27.836l2.154,2.154l-29.991,29.99v14.57h-3.062v-14.57l-27.383-27.383v26.079l28.857,28.913
		l31.918-31.918v34.696H194.4z"/>
</g>
<g id="Layer_3">
</g>
</svg>
