<svg xmlns="http://www.w3.org/2000/svg" viewBox="0 0 199.03 16.9"><defs><style>.cls-1,.cls-2{fill:#ffffff;}.cls-1{fill-rule:evenodd;}</style></defs><title>アセット 1logo</title><g id="レイヤー_2" data-name="レイヤー 2"><g id="使用データ"><path class="cls-1" d="M12.41,0A23.31,23.31,0,0,1,.47,8.36C2.06,3.89,7.3.25,12.41,0Z"/><path class="cls-1" d="M9.57,16.66a10.1,10.1,0,0,0-8-8.18,0,0,0,0,1,0,0l0,0A25.32,25.32,0,0,0,15.23.24a7.2,7.2,0,0,1,2.16.88A27.33,27.33,0,0,1,2.92,8.42s0,0,0,0,0,0,0,0a11.47,11.47,0,0,1,9.44,7.3A13.72,13.72,0,0,1,9.57,16.66Z"/><path class="cls-1" d="M14.67,14.52C12.62,11.19,9,9,4.3,8.48c0,0,0,0,0,0l0,0a29,29,0,0,0,14.54-6,5.39,5.39,0,0,1,.83,1.4A30.19,30.19,0,0,1,5.84,8.42l0,0a0,0,0,0,0,0,0,15.52,15.52,0,0,1,10.65,4.64A14.45,14.45,0,0,1,14.67,14.52Z"/><path class="cls-1" d="M17.75,11.78a18,18,0,0,0-10-3.3s0,0,0,0,0,0,0,0A31.27,31.27,0,0,0,20,5.12a7,7,0,0,1-.37,3.33A10.77,10.77,0,0,1,17.75,11.78Z"/><path class="cls-1" d="M.4,8.54A9.07,9.07,0,0,1,6.59,16.9C1.65,16.65-1.08,13,.4,8.54Z"/><path class="cls-2" d="M191.16,12.14l-2.6-3.27-1.3,3.81h-5.21l3.18-7.5A1.93,1.93,0,0,1,186.89,4h1.24a2,2,0,0,1,1.56.78L192.37,8l1.44-3.78H199l-3.18,7.49a2.4,2.4,0,0,1-1.94,1.17h-1.23A2,2,0,0,1,191.16,12.14Z"/><path class="cls-2" d="M140.68,4.11A17.19,17.19,0,0,1,143.31,4a18.57,18.57,0,0,1,3.7.42v2a6.61,6.61,0,0,0-3-.64c-1.24,0-1.85.25-2,.61-.35.63.66,1,1.08,1.18,1.19.51,3.79,1.19,3.17,3-.75,2.16-5.37,2.24-7.52,2.27a15.29,15.29,0,0,1-3.69-.29l-.22-2.19a10.93,10.93,0,0,0,3.63.65c1.18,0,2-.24,2.13-.88.17-1.21-4.72-1.41-4.13-3.81C136.83,4.81,139.26,4.22,140.68,4.11Z"/><path class="cls-2" d="M164.59,12.89h-2.33a1.57,1.57,0,0,1-1.45-1.4l-1.29-7.26h5v6.16l3.9-6.16h5.24l-6.51,7.47A3.78,3.78,0,0,1,164.59,12.89Z"/><polygon class="cls-2" points="183.78 4.23 183.78 5.92 179.08 5.92 178.37 7.61 182.51 7.61 181.84 9.3 177.65 9.3 176.94 10.99 182 10.99 180.38 12.68 171 12.68 174.58 4.23 183.78 4.23"/><polygon class="cls-2" points="158.94 4.23 158.94 5.92 154.25 5.92 153.53 7.61 157.68 7.61 157.01 9.3 152.81 9.3 152.1 10.99 157.17 10.99 155.54 12.68 146.16 12.68 149.74 4.23 158.94 4.23"/><path class="cls-2" d="M116.74,4.32a19.62,19.62,0,0,0-3.67-.3c-6.42,0-9.16,2.76-9.35,5.32,0,2.09,2.33,3.28,5.5,3.51a15.82,15.82,0,0,0,4.34-.29l2-2a10.68,10.68,0,0,1-4.17.25c-1.28-.18-2.19-.77-2.19-1.8a2.21,2.21,0,0,1,.13-.66c.81-1.86,2.85-2.37,4.45-2.39a8.8,8.8,0,0,1,3,.39Z"/><path class="cls-1" d="M71.35,8.79c-.75,1.79-1.73,2.31-2.81,2.21a1.2,1.2,0,0,1-1.15-1.32,4.82,4.82,0,0,1,.25-1.38c.53-1.66,1.45-2.77,3-2.57a1.25,1.25,0,0,1,1.09,1.4A4.5,4.5,0,0,1,71.35,8.79Zm.1-4.73C70.26,4,66,3.8,63.57,6.26A4.06,4.06,0,0,0,62.37,9c0,1.89,1.69,3.48,5.26,3.8,4.67.43,7.88-1.52,8.78-3.65a3.92,3.92,0,0,0,.33-1.51C76.75,6,75.45,4.35,71.45,4.06Z"/><path class="cls-1" d="M76.45,11.19c.88-2.13,2.45-5.8,2.46-5.8a2,2,0,0,1,1.64-1.17H87.1c3.58,0,3.89,1.11,3.44,2.21C90,7.77,88.15,8.15,87.47,8.17c0,0,0,0,0,0,1.87.37,2.76,1,2.15,2.53s-3.56,2-6.35,2H77.33C76.58,12.67,76.12,12.07,76.45,11.19ZM83.9,7.8h-.81l.8-1.88h1c.75,0,1,.35.77,1S84.78,7.8,83.9,7.8Zm-.46,1.08c.68,0,1.49.24,1.14,1.08s-1.08,1-2,1h-.76l.86-2Z"/><path class="cls-2" d="M122.15,4.12A16.07,16.07,0,0,1,124.79,4a18.55,18.55,0,0,1,3.69.42v2a6.75,6.75,0,0,0-3-.65c-1.24,0-1.85.26-2,.62-.35.62.66,1,1.08,1.18,1.19.51,3.79,1.19,3.18,3-.75,2.17-5.38,2.25-7.53,2.28a14.69,14.69,0,0,1-3.68-.3l-.23-2.18a10.93,10.93,0,0,0,3.63.65c1.18,0,2-.25,2.13-.88.17-1.21-4.72-1.41-4.13-3.81C118.3,4.81,120.73,4.23,122.15,4.12Z"/><path class="cls-2" d="M98.58,9.89V6.2L96.07,9.89Zm-10,2.79L96,5.05a3.75,3.75,0,0,1,2.63-1h2.23a1.56,1.56,0,0,1,1.45,1.38l1.29,7.29h-5V11.35h-3.5l-.9,1.33Z"/><path class="cls-2" d="M31.11,9.9V6.21L28.61,9.9Zm-9.95,2.78,7.37-7.62a3.77,3.77,0,0,1,2.63-1h2.22a1.57,1.57,0,0,1,1.45,1.4l1.29,7.27h-5V11.36h-3.5l-.89,1.32Z"/><polygon class="cls-2" points="60.1 5.92 62.93 5.92 63.65 4.22 52.34 4.22 51.63 5.92 54.88 5.92 52.02 12.68 57.24 12.68 60.1 5.92"/><path class="cls-2" d="M49.21,9.57c-.8,1.89-2.16,3.32-7.52,3.32-3,0-5-1.09-5-2.7a2.4,2.4,0,0,1,.21-1l2.1-5h5.22L42,9.38a2.31,2.31,0,0,0-.25.81c0,.42.21.74.86.8a1.65,1.65,0,0,0,1.69-1.25l2.33-5.52h4.79Z"/></g></g></svg>