<?xml version="1.0" encoding="utf-8"?>
<!-- Generator: Adobe Illustrator 26.1.0, SVG Export Plug-In . SVG Version: 6.00 Build 0)  -->
<svg version="1.1" xmlns="http://www.w3.org/2000/svg" xmlns:xlink="http://www.w3.org/1999/xlink" x="0px" y="0px"
	 viewBox="0 0 700 220" enable-background="new 0 0 700 220" xml:space="preserve">
<path fill="#60C0C0" d="M280.1,69.2c-21.1,0-34.7,14.2-34.7,37.8c0,25.4,14.2,43.5,34.7,43.5s35.2-17.3,35.2-43.5
	C315.3,82.7,301.4,69.2,280.1,69.2z"/>
<path fill="#60C0C0" d="M670,0H30C13.5,0,0,13.6,0,30.4v159.2C0,206.4,13.5,220,30,220H670c16.6,0,30-13.6,30-30.4V30.4
	C700,13.6,686.5,0,670,0z M207.3,155.7c0,10.5-0.3,10.5-13.7,10.5V81.5c-9.6,24.2-19.8,46.4-31.6,68.6c-4.5,2.1-9.9,2.9-14.2,3.1
	c-11.3-22.2-22.5-47.1-31.9-71.6v83.8h-13.7V58.3c5.4-2.9,11.6-3.8,18-4.5c8.8,23.4,21.7,55.4,34.6,80.5
	c14-27.7,23.6-50.8,33.5-75.7c6.1-3.4,12-4.5,19-4.8V155.7z M280.1,164.9c-29.8,0-51.1-25.2-51.1-57.9c0-32.7,20.7-51.6,51.1-51.6
	s51.4,19.1,51.4,51.6S310.2,164.9,280.1,164.9z M420.2,165.5h-39c-19.9,0-26.8-6.7-26.8-25.6V62.3c0-8.3,2.5-8.3,16-8.3v83.9
	c0,8.8,3.9,12.4,13.5,12.4h36.4V165.5z M510.6,165.5h-39c-19.9,0-26.8-6.7-26.8-25.6V62.3c0-8.3,2.5-8.3,16-8.3v83.9
	c0,8.8,3.9,12.4,13.5,12.4h36.4V165.5z M597.9,165.5L597.9,165.5l-42.9,0c-19.9,0-26.8-6.7-26.8-25.6V63c0-8.3,2.5-8.3,16-8.3h46.7
	c6,0,6,5,6,15h-52.7v35.1h43.1v14.1h-43.1V138c0,8.8,3.9,12.6,13.5,12.6h40.3V165.5z"/>
</svg>
