<?xml version="1.0" encoding="utf-8"?>
<!-- Generator: Adobe Illustrator 26.2.1, SVG Export Plug-In . SVG Version: 6.00 Build 0)  -->
<svg version="1.1" xmlns="http://www.w3.org/2000/svg" xmlns:xlink="http://www.w3.org/1999/xlink" x="0px" y="0px"
	 viewBox="0 0 864 200" enable-background="new 0 0 864 200" xml:space="preserve">
<path d="M41.5,17.5v60.3H24.9V17.5h-23V2.2h62.6v15.3H41.5z"/>
<path d="M147,55.2c-2,4.7-4.8,8.9-8.4,12.4c-3.6,3.6-7.8,6.4-12.7,8.4c-4.9,2.1-10.3,3.1-16.1,3.1s-11.2-1-16.1-3.1
	c-4.9-2.1-9.1-4.8-12.7-8.3c-3.6-3.5-6.3-7.6-8.3-12.3c-2-4.7-3-9.8-3-15.2V40c0-5.4,1-10.5,3-15.2c2-4.7,4.8-8.9,8.4-12.4
	C84.6,8.8,88.9,6,93.8,4c4.9-2.1,10.3-3.1,16.1-3.1s11.2,1,16.1,3.1c4.9,2.1,9.1,4.8,12.7,8.3c3.6,3.5,6.3,7.6,8.3,12.3
	c2,4.7,3,9.8,3,15.2V40C150,45.4,149,50.5,147,55.2z M132.6,40c0-3.2-0.6-6.3-1.7-9.2c-1.1-2.9-2.7-5.4-4.8-7.6
	c-2.1-2.2-4.5-3.9-7.3-5.1c-2.8-1.3-5.9-1.9-9.2-1.9c-3.4,0-6.5,0.6-9.2,1.8c-2.8,1.2-5.1,2.9-7.1,5.1c-2,2.2-3.5,4.7-4.6,7.5
	c-1.1,2.8-1.7,5.9-1.7,9.1V40c0,3.2,0.6,6.3,1.7,9.2c1.1,2.9,2.7,5.4,4.8,7.6s4.5,3.9,7.2,5.1c2.8,1.3,5.8,1.9,9.2,1.9
	c3.3,0,6.4-0.6,9.2-1.8c2.8-1.2,5.2-2.9,7.2-5.1c2-2.2,3.5-4.7,4.6-7.5c1.1-2.8,1.7-5.9,1.7-9.1V40z"/>
<path d="M211.9,77.8l-23.4-32.2l-8.7,9.1v23.1h-16.6V2.2h16.6v33l30.7-33h20.1l-30.8,32.1l32.2,43.5H211.9z"/>
<path d="M281.9,47.7v30.1h-16.6V48L236.2,2.2h19.4l18,30.3L292,2.2h18.9L281.9,47.7z"/>
<path d="M387,55.2c-2,4.7-4.8,8.9-8.4,12.4c-3.6,3.6-7.8,6.4-12.7,8.4c-4.9,2.1-10.3,3.1-16.1,3.1s-11.2-1-16.1-3.1
	c-4.9-2.1-9.1-4.8-12.7-8.3c-3.6-3.5-6.3-7.6-8.3-12.3c-2-4.7-3-9.8-3-15.2V40c0-5.4,1-10.5,3-15.2c2-4.7,4.8-8.9,8.4-12.4
	c3.6-3.6,7.8-6.4,12.7-8.4c4.9-2.1,10.3-3.1,16.1-3.1s11.2,1,16.1,3.1c4.9,2.1,9.1,4.8,12.7,8.3c3.6,3.5,6.3,7.6,8.3,12.3
	c2,4.7,3,9.8,3,15.2V40C390,45.4,389,50.5,387,55.2z M372.6,40c0-3.2-0.6-6.3-1.7-9.2c-1.1-2.9-2.7-5.4-4.8-7.6
	c-2.1-2.2-4.5-3.9-7.3-5.1c-2.8-1.3-5.9-1.9-9.2-1.9c-3.4,0-6.5,0.6-9.2,1.8c-2.8,1.2-5.1,2.9-7.1,5.1c-2,2.2-3.5,4.7-4.6,7.5
	c-1.1,2.8-1.7,5.9-1.7,9.1V40c0,3.2,0.6,6.3,1.7,9.2c1.1,2.9,2.7,5.4,4.8,7.6s4.5,3.9,7.2,5.1c2.8,1.3,5.8,1.9,9.2,1.9
	c3.3,0,6.4-0.6,9.2-1.8c2.8-1.2,5.2-2.9,7.2-5.1c2-2.2,3.5-4.7,4.6-7.5c1.1-2.8,1.7-5.9,1.7-9.1V40z"/>
<path d="M59.9,185.4c-1.4,2.9-3.3,5.4-5.7,7.3c-2.4,2-5.3,3.5-8.7,4.5c-3.4,1-7.1,1.6-11.2,1.6c-5.8,0-11.4-1-17-3
	c-5.5-2-10.6-5-15.1-9.1l9.8-11.8c3.5,2.8,7,5,10.6,6.7c3.6,1.7,7.6,2.5,11.9,2.5c3.5,0,6.1-0.6,8-1.9c1.9-1.3,2.9-3,2.9-5.2v-0.2
	c0-1.1-0.2-2-0.6-2.9c-0.4-0.8-1.2-1.6-2.3-2.3c-1.1-0.7-2.7-1.4-4.7-2.2c-2-0.7-4.6-1.5-7.7-2.3c-3.8-0.9-7.3-2-10.4-3.1
	c-3.1-1.2-5.7-2.6-7.9-4.3c-2.2-1.7-3.8-3.8-5-6.3c-1.2-2.5-1.8-5.7-1.8-9.4v-0.2c0-3.5,0.6-6.6,1.9-9.3c1.3-2.8,3.1-5.2,5.4-7.2
	c2.3-2,5.1-3.6,8.3-4.6c3.2-1.1,6.8-1.6,10.7-1.6c5.5,0,10.6,0.8,15.3,2.5c4.6,1.7,8.9,4,12.8,7.1l-8.6,12.5
	c-3.4-2.3-6.7-4.1-9.9-5.5c-3.2-1.3-6.5-2-9.7-2s-5.7,0.6-7.3,1.9s-2.4,2.8-2.4,4.7v0.2c0,1.2,0.2,2.3,0.7,3.2
	c0.5,0.9,1.3,1.7,2.5,2.4c1.2,0.7,2.9,1.4,5,2.1c2.1,0.6,4.8,1.4,8.1,2.3c3.8,1,7.2,2.1,10.2,3.4c3,1.3,5.5,2.8,7.6,4.5
	c2.1,1.8,3.6,3.8,4.7,6.2c1,2.4,1.6,5.2,1.6,8.5v0.2C62,179.2,61.3,182.5,59.9,185.4z"/>
<path d="M137.1,179.9c-1.5,4.2-3.8,7.8-6.6,10.6c-2.9,2.8-6.4,5-10.5,6.4c-4.1,1.4-8.7,2.1-13.7,2.1c-10.2,0-18.1-2.8-24-8.4
	c-5.8-5.6-8.7-14-8.7-25.2v-43.2h16.6V165c0,6.2,1.4,10.9,4.3,14c2.9,3.1,6.9,4.7,12,4.7c5.1,0,9.1-1.5,12-4.5
	c2.9-3,4.3-7.6,4.3-13.6v-43.3h16.6v42.7C139.5,170.6,138.7,175.6,137.1,179.9z"/>
<path d="M213.3,160.1c-1.6,3.3-3.8,6.1-6.5,8.3c-2.8,2.2-6,3.9-9.7,5c-3.7,1.1-7.7,1.7-11.9,1.7h-12.6v22.7h-16.6v-75.6h30.9
	c4.5,0,8.6,0.6,12.2,1.9c3.6,1.3,6.6,3,9.1,5.3c2.5,2.3,4.4,5.1,5.7,8.3c1.3,3.2,2,6.8,2,10.6v0.2
	C215.7,152.9,214.9,156.8,213.3,160.1z M198.8,148.7c0-3.7-1.2-6.6-3.6-8.5c-2.4-1.9-5.7-2.9-9.9-2.9h-12.9v23.1h13.2
	c4.2,0,7.4-1.1,9.7-3.3c2.3-2.2,3.5-4.9,3.5-8.2V148.7z"/>
<path d="M226.2,197.8v-75.6h56.9V137h-40.5v15.3h35.6v14.8h-35.6V183h41v14.8H226.2z"/>
<path d="M344,197.8l-16.2-24.2h-13.1v24.2h-16.6v-75.6h34.6c9,0,16,2.2,21,6.6c5,4.4,7.5,10.5,7.5,18.4v0.2c0,6.1-1.5,11.1-4.5,15
	c-3,3.9-6.9,6.7-11.7,8.5l18.5,27H344z M344.3,148c0-3.6-1.2-6.3-3.5-8.1c-2.3-1.8-5.5-2.7-9.6-2.7h-16.5v21.7h16.8
	c4.1,0,7.3-1,9.4-2.9c2.2-1.9,3.3-4.5,3.3-7.8V148z"/>
<path d="M433.9,191.2c-2.1,1.7-4.4,3.1-6.9,4.3c-2.5,1.2-5.2,2.1-8.2,2.7c-3,0.6-6.3,0.9-9.9,0.9c-5.5,0-10.7-1-15.4-3
	c-4.8-2-8.9-4.8-12.3-8.3c-3.5-3.5-6.2-7.6-8.1-12.4c-1.9-4.8-2.9-9.8-2.9-15.2V160c0-5.4,1-10.5,2.9-15.2c1.9-4.7,4.6-8.9,8.1-12.4
	c3.5-3.6,7.6-6.4,12.4-8.4c4.8-2.1,10.2-3.1,16-3.1c3.5,0,6.8,0.3,9.7,0.9c2.9,0.6,5.6,1.4,7.9,2.4c2.4,1,4.6,2.2,6.6,3.7
	c2,1.4,3.9,3,5.6,4.8l-10.6,12.2c-3-2.7-6-4.8-9-6.3c-3.1-1.5-6.5-2.3-10.3-2.3c-3.2,0-6.1,0.6-8.8,1.8c-2.7,1.2-5,2.9-7,5.1
	c-1.9,2.2-3.5,4.7-4.5,7.5c-1.1,2.8-1.6,5.9-1.6,9.1v0.2c0,3.2,0.5,6.3,1.6,9.2c1.1,2.9,2.6,5.4,4.5,7.6c1.9,2.2,4.2,3.9,6.9,5.1
	c2.7,1.3,5.7,1.9,8.9,1.9c4.3,0,8-0.8,11-2.4c3-1.6,6-3.7,8.9-6.5l10.6,10.7C438,187.7,436,189.6,433.9,191.2z"/>
<path d="M507.4,197.8l-6.9-17h-32l-6.9,17h-17l32.4-76.1h15.3l32.4,76.1H507.4z M484.5,141.6l-10,24.5h20.1L484.5,141.6z"/>
<path d="M580.1,197.8l-16.2-24.2h-13.1v24.2h-16.6v-75.6h34.6c9,0,16,2.2,21,6.6c5,4.4,7.5,10.5,7.5,18.4v0.2c0,6.1-1.5,11.1-4.5,15
	c-3,3.9-6.9,6.7-11.7,8.5l18.5,27H580.1z M580.4,148c0-3.6-1.2-6.3-3.5-8.1c-2.3-1.8-5.5-2.7-9.6-2.7h-16.5v21.7h16.8
	c4.1,0,7.3-1,9.5-2.9c2.2-1.9,3.3-4.5,3.3-7.8V148z"/>
<path d="M711.4,174.9c-1.9,4.6-4.7,8.6-8.3,12c-3.6,3.4-7.8,6-12.7,8c-4.9,1.9-10.4,2.9-16.3,2.9h-29.5v-75.6h29.5
	c5.9,0,11.3,1,16.3,2.9c4.9,1.9,9.2,4.6,12.7,7.9c3.6,3.4,6.3,7.4,8.3,11.9c1.9,4.6,2.9,9.5,2.9,14.9v0.2
	C714.3,165.3,713.3,170.3,711.4,174.9z M696.9,160c0-3.3-0.6-6.4-1.7-9.2c-1.1-2.8-2.7-5.2-4.6-7.2c-2-2-4.4-3.6-7.2-4.7
	c-2.8-1.1-5.9-1.7-9.3-1.7h-12.9v45.6h12.9c3.4,0,6.5-0.5,9.3-1.6c2.8-1.1,5.2-2.6,7.2-4.6c2-2,3.5-4.4,4.6-7.1
	c1.1-2.7,1.7-5.8,1.7-9.2V160z"/>
<path d="M778.4,197.8l-6.9-17h-32l-6.9,17h-17l32.4-76.1h15.3l32.4,76.1H778.4z M755.6,141.6l-10,24.5h20.1L755.6,141.6z"/>
<path d="M833,167.7v30.1h-16.6V168l-29.1-45.8h19.4l18,30.3l18.4-30.3h18.9L833,167.7z"/>
<rect x="410.7" y="2.2" width="451.4" height="75.6"/>
<path fill="#FFFFFF" d="M469.3,55.8l24.1-18.2c2.3-1.8,4.1-3.4,5.2-4.9c1.2-1.5,1.8-3.2,1.8-5c0-1.9-0.7-3.4-2.1-4.6
	c-1.4-1.2-3.4-1.8-5.9-1.8c-2.4,0-4.5,0.6-6.4,1.7c-1.9,1.1-3.6,2.5-5.2,4.1l-3.1-3c1.9-2,4.1-3.7,6.5-5.1c2.4-1.3,5.2-2,8.3-2
	c1.9,0,3.6,0.3,5.2,0.8c1.6,0.5,2.9,1.2,4,2.1c1.1,0.9,2,2,2.6,3.3c0.6,1.3,0.9,2.7,0.9,4.3c0,2.5-0.8,4.8-2.3,6.8
	c-1.5,2-3.7,4.1-6.7,6.4l-19.4,14.7h22.4l-1.1,4.3h-29.9L469.3,55.8z"/>
<path fill="#FFFFFF" d="M516.3,59c-1.8-0.8-3.4-1.9-4.6-3.4c-1.3-1.4-2.2-3.2-2.9-5.1c-0.6-2-1-4.1-1-6.5c0-3.3,0.5-6.6,1.6-9.8
	c1.1-3.2,2.5-6.2,4.5-8.7c1.9-2.6,4.2-4.7,6.9-6.3c2.7-1.6,5.6-2.4,8.9-2.4c2.3,0,4.4,0.4,6.2,1.2c1.8,0.8,3.4,1.9,4.6,3.4
	c1.2,1.4,2.2,3.2,2.8,5.1s1,4.1,1,6.5c0,3.3-0.5,6.6-1.6,9.8c-1.1,3.2-2.5,6.2-4.5,8.7c-1.9,2.6-4.2,4.7-6.9,6.3
	c-2.7,1.6-5.6,2.4-8.9,2.4C520.2,60.2,518.1,59.8,516.3,59z M529.4,53.9c2-1.4,3.8-3.1,5.3-5.3s2.7-4.6,3.6-7.3
	c0.9-2.7,1.3-5.5,1.3-8.2c0-1.7-0.2-3.3-0.7-4.7c-0.4-1.4-1.1-2.7-2-3.8c-0.9-1.1-1.9-1.9-3.2-2.5s-2.7-0.9-4.4-0.9
	c-2.3,0-4.5,0.7-6.5,2c-2,1.4-3.8,3.1-5.3,5.3c-1.5,2.2-2.7,4.6-3.6,7.4c-0.9,2.7-1.3,5.5-1.3,8.2c0,1.7,0.2,3.3,0.7,4.7
	c0.4,1.4,1.1,2.7,1.9,3.8c0.8,1.1,1.9,1.9,3.2,2.5c1.3,0.6,2.7,0.9,4.4,0.9C525.1,55.9,527.3,55.2,529.4,53.9z"/>
<path fill="#FFFFFF" d="M542.7,55.8l24.1-18.2c2.3-1.8,4.1-3.4,5.2-4.9c1.2-1.5,1.8-3.2,1.8-5c0-1.9-0.7-3.4-2.1-4.6
	c-1.4-1.2-3.4-1.8-5.9-1.8c-2.4,0-4.5,0.6-6.4,1.7c-1.9,1.1-3.6,2.5-5.2,4.1l-3.1-3c1.9-2,4.1-3.7,6.5-5.1c2.4-1.3,5.2-2,8.3-2
	c1.9,0,3.6,0.3,5.2,0.8c1.6,0.5,2.9,1.2,4,2.1c1.1,0.9,2,2,2.6,3.3c0.6,1.3,0.9,2.7,0.9,4.3c0,2.5-0.8,4.8-2.3,6.8
	c-1.5,2-3.7,4.1-6.7,6.4l-19.4,14.7h22.4l-1.1,4.3h-29.9L542.7,55.8z"/>
<path fill="#FFFFFF" d="M577,55.8l24.1-18.2c2.3-1.8,4.1-3.4,5.2-4.9c1.2-1.5,1.8-3.2,1.8-5c0-1.9-0.7-3.4-2.1-4.6
	c-1.4-1.2-3.4-1.8-5.9-1.8c-2.4,0-4.5,0.6-6.4,1.7c-1.9,1.1-3.6,2.5-5.2,4.1l-3.1-3c1.9-2,4.1-3.7,6.5-5.1c2.4-1.3,5.2-2,8.3-2
	c1.9,0,3.6,0.3,5.2,0.8c1.6,0.5,2.9,1.2,4,2.1c1.1,0.9,2,2,2.6,3.3c0.6,1.3,0.9,2.7,0.9,4.3c0,2.5-0.8,4.8-2.3,6.8
	c-1.5,2-3.7,4.1-6.7,6.4l-19.4,14.7h22.4l-1.1,4.3H576L577,55.8z"/>
<path fill="#FFFFFF" d="M635.8,58c-2.9-1.4-5.2-3.3-7-5.8l3.6-2.8c1.8,2.2,3.8,3.8,5.9,4.9c2.2,1.1,4.8,1.7,7.9,1.7
	c1.5,0,2.9-0.2,4.2-0.6c1.3-0.4,2.4-0.9,3.4-1.6s1.7-1.5,2.2-2.5s0.8-2,0.8-3.2c0-0.8-0.1-1.5-0.5-2.2c-0.3-0.7-0.8-1.3-1.4-1.9
	s-1.6-1.2-2.7-1.8c-1.1-0.6-2.5-1.2-4.1-1.8c-1.9-0.8-3.6-1.5-5-2.3c-1.4-0.8-2.6-1.6-3.6-2.4s-1.7-1.8-2.2-2.9
	c-0.5-1.1-0.7-2.3-0.7-3.6c0-1.7,0.4-3.3,1.1-4.8c0.8-1.5,1.8-2.8,3.2-3.9c1.4-1.1,3-1.9,4.9-2.6c1.9-0.6,4-0.9,6.2-0.9
	c3.3,0,6.2,0.6,8.7,1.7c2.5,1.2,4.6,2.7,6.2,4.6l-3.5,3.1c-1.5-1.7-3.2-3-5.2-3.9c-1.9-0.9-4.2-1.4-6.6-1.4c-1.6,0-3,0.2-4.2,0.6
	c-1.3,0.4-2.3,1-3.2,1.7c-0.9,0.7-1.5,1.5-2,2.4s-0.7,1.8-0.7,2.8c0,0.8,0.2,1.6,0.5,2.3c0.3,0.7,0.9,1.3,1.7,1.9
	c0.8,0.6,1.7,1.2,2.9,1.7c1.2,0.6,2.6,1.2,4.2,1.8c1.8,0.7,3.4,1.4,4.7,2.1c1.4,0.7,2.5,1.6,3.4,2.4c0.9,0.9,1.6,1.9,2,2.9
	c0.5,1.1,0.7,2.3,0.7,3.6c0,1.8-0.4,3.5-1.2,5.1c-0.8,1.6-1.9,2.9-3.4,4c-1.4,1.1-3.1,2-5,2.6c-1.9,0.6-4,1-6.3,1
	C642.1,60.1,638.7,59.4,635.8,58z"/>
<path fill="#FFFFFF" d="M673.4,28.5h4.6l-1.4,5.3c1.5-1.7,3.2-3.1,5.1-4.3c1.9-1.2,4.1-1.7,6.6-1.7c1.8,0,3.4,0.3,4.9,0.9
	c1.5,0.6,2.8,1.5,3.9,2.7c1.1,1.2,2,2.6,2.6,4.2c0.6,1.6,0.9,3.4,0.9,5.4c0,2.8-0.5,5.3-1.4,7.7s-2.2,4.4-3.9,6.1
	c-1.6,1.7-3.5,3.1-5.6,4s-4.3,1.5-6.5,1.5c-1.6,0-3-0.2-4.3-0.6c-1.2-0.4-2.3-1-3.3-1.7c-1-0.7-1.8-1.5-2.4-2.4
	c-0.7-0.9-1.2-1.9-1.7-2.9l-4.4,16.6h-4.6L673.4,28.5z M688,54.9c1.6-0.8,3-1.9,4.1-3.2c1.2-1.3,2.1-2.9,2.7-4.7
	c0.7-1.8,1-3.7,1-5.7c0-1.4-0.2-2.7-0.6-3.9s-1-2.2-1.8-3s-1.7-1.5-2.8-1.9c-1.1-0.4-2.2-0.7-3.6-0.7c-1.7,0-3.4,0.4-5.1,1.2
	c-1.7,0.8-3.1,1.9-4.4,3.2c-1.3,1.3-2.3,2.9-3.1,4.7c-0.8,1.8-1.2,3.6-1.2,5.5c0,1.4,0.2,2.6,0.7,3.8c0.5,1.2,1.1,2.2,2,3.1
	s1.8,1.5,3,2c1.2,0.5,2.5,0.8,3.9,0.8C684.7,56.1,686.4,55.7,688,54.9z"/>
<path fill="#FFFFFF" d="M710.6,28.5h4.6l-2.1,8.1c1-1.4,2-2.6,3-3.7c1.1-1.1,2.2-2,3.5-2.8c1.2-0.8,2.5-1.3,3.9-1.7
	c1.4-0.4,2.8-0.5,4.4-0.5l-1.3,5h-0.3c-1.7,0-3.4,0.3-5,0.9c-1.7,0.6-3.2,1.5-4.6,2.7c-1.4,1.2-2.7,2.7-3.8,4.5
	c-1.1,1.8-2,3.9-2.6,6.2l-3.3,12.2h-4.6L710.6,28.5z"/>
<path fill="#FFFFFF" d="M732.1,28.5h4.6l-8.3,31h-4.6L732.1,28.5z M734.9,16.6h5.3l-1.4,5.1h-5.3L734.9,16.6z"/>
<path fill="#FFFFFF" d="M744.6,28.5h4.6l-1.3,5c1.4-1.6,3-2.9,4.7-4c1.7-1.1,3.8-1.7,6.1-1.7c3,0,5.4,0.9,7.2,2.6
	c1.8,1.7,2.7,4.1,2.7,7c0,0.7-0.1,1.5-0.2,2.3c-0.2,0.8-0.3,1.7-0.5,2.5l-4.6,17.3h-4.6l4.7-17.5c0.2-0.5,0.3-1.1,0.4-1.7
	s0.1-1.2,0.1-1.7c0-2-0.6-3.6-1.9-4.8c-1.2-1.1-2.9-1.7-5.1-1.7c-1.2,0-2.4,0.3-3.6,0.7S751,34,750,34.8c-1,0.9-1.9,1.9-2.6,3.1
	s-1.3,2.6-1.7,4L741,59.5h-4.6L744.6,28.5z"/>
<path fill="#FFFFFF" d="M775.2,67.8c-2.7-1-5-2.3-6.9-4l2.9-3.2c1.7,1.4,3.5,2.5,5.6,3.4c2,0.9,4.3,1.3,6.7,1.3c2,0,3.7-0.3,5.1-0.9
	c1.4-0.6,2.6-1.4,3.6-2.3s1.7-2,2.3-3.2c0.6-1.2,1.1-2.6,1.6-4.2l0.8-3.1c-1.6,1.6-3.3,2.9-5.2,4c-1.9,1.1-4.1,1.6-6.7,1.6
	c-1.6,0-3.2-0.3-4.7-0.8c-1.5-0.5-2.8-1.3-4-2.3c-1.2-1-2.1-2.2-2.8-3.7c-0.7-1.4-1-3.1-1-5c0-2.6,0.5-4.9,1.5-7.1s2.3-4,3.9-5.6
	c1.6-1.6,3.5-2.8,5.6-3.6c2.1-0.9,4.2-1.3,6.4-1.3c1.7,0,3.1,0.2,4.3,0.6c1.2,0.4,2.3,1,3.2,1.7c0.9,0.7,1.7,1.5,2.3,2.4
	c0.6,0.9,1.1,1.8,1.6,2.7l1.8-6.8h4.6l-7.1,26.6c-0.6,2.4-1.4,4.3-2.2,5.8c-0.8,1.5-1.8,2.8-2.9,3.9c-1.4,1.4-3.1,2.5-5.1,3.3
	c-2,0.7-4.3,1.1-6.9,1.1C780.7,69.2,777.9,68.7,775.2,67.8z M791.4,52.1c1.6-0.7,3-1.6,4.2-2.8c1.2-1.2,2.2-2.5,2.9-4
	c0.7-1.5,1.1-3,1.1-4.7c0-1.1-0.2-2.2-0.7-3.3c-0.4-1.1-1.1-2-1.9-2.8c-0.8-0.8-1.8-1.5-3-1.9s-2.5-0.7-4-0.7c-1.6,0-3.2,0.3-4.8,1
	c-1.5,0.6-2.9,1.5-4.1,2.7c-1.2,1.2-2.1,2.5-2.8,4.1c-0.7,1.6-1.1,3.3-1.1,5.1c0,1.4,0.2,2.6,0.8,3.7c0.5,1,1.2,1.9,2,2.6
	c0.8,0.7,1.8,1.2,2.9,1.6c1.1,0.4,2.2,0.5,3.4,0.5C788.1,53.1,789.8,52.8,791.4,52.1z"/>
</svg>
